<svg width="68" height="68" viewBox="0 0 68 68" fill="none" xmlns="http://www.w3.org/2000/svg">
<g filter="url(#filter0_d_41_6)">
<rect x="4" width="60" height="60" rx="10" fill="#91F8A1"/>
</g>
<path d="M26.8986 30.056C26.8986 28.232 27.2746 26.608 28.0266 25.184C28.9066 23.504 30.2266 22.336 31.9866 21.68C32.9626 21.328 33.9786 21.152 35.0346 21.152C36.0906 21.152 37.1066 21.232 38.0826 21.392C39.0586 21.552 39.6986 21.696 40.0026 21.824C40.0986 22.416 40.1466 23.04 40.1466 23.696C40.1466 24.336 40.1306 25.056 40.0986 25.856L38.7306 26.048C38.3786 24.192 38.0666 23.168 37.7946 22.976C37.6506 22.864 37.2746 22.744 36.6666 22.616C36.0746 22.488 35.4826 22.424 34.8906 22.424C33.1306 22.424 31.8026 23.072 30.9066 24.368C30.0106 25.664 29.5626 27.368 29.5626 29.48C29.5626 31.976 30.1306 33.832 31.2666 35.048C32.4026 36.264 33.8106 36.872 35.4906 36.872C36.0986 36.872 36.6666 36.8 37.1946 36.656C37.7386 36.512 38.0906 36.376 38.2506 36.248C38.4266 36.12 38.6906 35.104 39.0426 33.2L40.3626 33.248C40.3626 34.464 40.2746 35.76 40.0986 37.136C39.6026 37.408 38.8506 37.656 37.8426 37.88C36.8506 38.104 35.8346 38.216 34.7946 38.216C32.1866 38.216 30.2186 37.448 28.8906 35.912C27.5626 34.376 26.8986 32.424 26.8986 30.056Z" fill="black"/>
<defs>
<filter id="filter0_d_41_6" x="0" y="0" width="68" height="68" filterUnits="userSpaceOnUse" color-interpolation-filters="sRGB">
<feFlood flood-opacity="0" result="BackgroundImageFix"/>
<feColorMatrix in="SourceAlpha" type="matrix" values="0 0 0 0 0 0 0 0 0 0 0 0 0 0 0 0 0 0 127 0" result="hardAlpha"/>
<feOffset dy="4"/>
<feGaussianBlur stdDeviation="2"/>
<feComposite in2="hardAlpha" operator="out"/>
<feColorMatrix type="matrix" values="0 0 0 0 0 0 0 0 0 0 0 0 0 0 0 0 0 0 0.25 0"/>
<feBlend mode="normal" in2="BackgroundImageFix" result="effect1_dropShadow_41_6"/>
<feBlend mode="normal" in="SourceGraphic" in2="effect1_dropShadow_41_6" result="shape"/>
</filter>
</defs>
</svg>
