<svg width="148" height="68" viewBox="0 0 148 68" fill="none" xmlns="http://www.w3.org/2000/svg">
<g filter="url(#filter0_d_41_95)">
<rect x="4" width="140" height="60" rx="10" fill="#25A639"/>
</g>
<path d="M78.048 28.376C78.048 30.44 77.536 32.096 76.512 33.344C75.504 34.592 74.104 35.216 72.312 35.216C70.536 35.216 69.168 34.64 68.208 33.488C67.248 32.32 66.768 30.704 66.768 28.64C66.768 26.56 67.272 24.896 68.28 23.648C69.304 22.384 70.704 21.752 72.48 21.752C74.272 21.752 75.648 22.336 76.608 23.504C77.568 24.672 78.048 26.296 78.048 28.376ZM72.648 33.944C73.576 33.944 74.264 33.664 74.712 33.104C75 32.736 75.24 32.144 75.432 31.328C75.624 30.512 75.72 29.624 75.72 28.664C75.72 27.016 75.416 25.664 74.808 24.608C74.216 23.552 73.336 23.024 72.168 23.024C71.24 23.024 70.552 23.304 70.104 23.864C69.816 24.232 69.576 24.824 69.384 25.64C69.192 26.456 69.096 27.344 69.096 28.304C69.096 29.952 69.392 31.304 69.984 32.36C70.592 33.416 71.48 33.944 72.648 33.944Z" fill="white"/>
<defs>
<filter id="filter0_d_41_95" x="0" y="0" width="148" height="68" filterUnits="userSpaceOnUse" color-interpolation-filters="sRGB">
<feFlood flood-opacity="0" result="BackgroundImageFix"/>
<feColorMatrix in="SourceAlpha" type="matrix" values="0 0 0 0 0 0 0 0 0 0 0 0 0 0 0 0 0 0 127 0" result="hardAlpha"/>
<feOffset dy="4"/>
<feGaussianBlur stdDeviation="2"/>
<feComposite in2="hardAlpha" operator="out"/>
<feColorMatrix type="matrix" values="0 0 0 0 0 0 0 0 0 0 0 0 0 0 0 0 0 0 0.25 0"/>
<feBlend mode="normal" in2="BackgroundImageFix" result="effect1_dropShadow_41_95"/>
<feBlend mode="normal" in="SourceGraphic" in2="effect1_dropShadow_41_95" result="shape"/>
</filter>
</defs>
</svg>
