<svg width="68" height="68" viewBox="0 0 68 68" fill="none" xmlns="http://www.w3.org/2000/svg">
<g filter="url(#filter0_d_41_89)">
<rect x="4" width="60" height="60" rx="10" fill="#25A639"/>
</g>
<path d="M26.744 27.92L26.192 26.456L33.8 16.184C34.696 15.976 35.384 15.872 35.864 15.872L36.128 16.112V26.528L38.576 26.576L38.36 27.944H36.128V31.928C35.616 32.024 34.984 32.072 34.232 32.072L33.968 31.832V27.944H26.768L26.744 27.92ZM27.896 26.24L27.992 26.408L33.968 26.504V18.992C33.968 18.656 33.984 18.416 34.016 18.272L33.872 18.2L28.328 25.712C28.2 25.904 28.056 26.08 27.896 26.24Z" fill="white"/>
<defs>
<filter id="filter0_d_41_89" x="0" y="0" width="68" height="68" filterUnits="userSpaceOnUse" color-interpolation-filters="sRGB">
<feFlood flood-opacity="0" result="BackgroundImageFix"/>
<feColorMatrix in="SourceAlpha" type="matrix" values="0 0 0 0 0 0 0 0 0 0 0 0 0 0 0 0 0 0 127 0" result="hardAlpha"/>
<feOffset dy="4"/>
<feGaussianBlur stdDeviation="2"/>
<feComposite in2="hardAlpha" operator="out"/>
<feColorMatrix type="matrix" values="0 0 0 0 0 0 0 0 0 0 0 0 0 0 0 0 0 0 0.25 0"/>
<feBlend mode="normal" in2="BackgroundImageFix" result="effect1_dropShadow_41_89"/>
<feBlend mode="normal" in="SourceGraphic" in2="effect1_dropShadow_41_89" result="shape"/>
</filter>
</defs>
</svg>
