<svg width="68" height="68" viewBox="0 0 68 68" fill="none" xmlns="http://www.w3.org/2000/svg">
<g filter="url(#filter0_d_41_39)">
<rect x="4" width="60" height="60" rx="10" fill="#83BFD2"/>
</g>
<path d="M33.984 19.896C35.248 19.896 36.32 20.368 37.2 21.312C38.08 22.24 38.52 23.448 38.52 24.936C38.52 26.408 38.032 27.656 37.056 28.68C36.08 29.704 34.792 30.216 33.192 30.216C31.608 30.216 30.36 29.664 29.448 28.56C28.536 27.456 28.08 25.968 28.08 24.096C28.08 21.504 28.904 19.264 30.552 17.376C32.2 15.488 34.192 14.256 36.528 13.68L37.008 14.664C33.488 16.136 31.384 18.384 30.696 21.408L30.888 21.48C31.704 20.424 32.736 19.896 33.984 19.896ZM35.328 28.368C35.936 27.712 36.24 26.752 36.24 25.488C36.24 24.224 36.008 23.256 35.544 22.584C35.08 21.896 34.496 21.552 33.792 21.552C33.456 21.552 33.016 21.608 32.472 21.72C31.944 21.832 31.504 22.008 31.152 22.248C30.624 22.6 30.36 23.152 30.36 23.904C30.36 27.328 31.472 29.04 33.696 29.04C34.368 29.04 34.912 28.816 35.328 28.368Z" fill="black"/>
<defs>
<filter id="filter0_d_41_39" x="0" y="0" width="68" height="68" filterUnits="userSpaceOnUse" color-interpolation-filters="sRGB">
<feFlood flood-opacity="0" result="BackgroundImageFix"/>
<feColorMatrix in="SourceAlpha" type="matrix" values="0 0 0 0 0 0 0 0 0 0 0 0 0 0 0 0 0 0 127 0" result="hardAlpha"/>
<feOffset dy="4"/>
<feGaussianBlur stdDeviation="2"/>
<feComposite in2="hardAlpha" operator="out"/>
<feColorMatrix type="matrix" values="0 0 0 0 0 0 0 0 0 0 0 0 0 0 0 0 0 0 0.25 0"/>
<feBlend mode="normal" in2="BackgroundImageFix" result="effect1_dropShadow_41_39"/>
<feBlend mode="normal" in="SourceGraphic" in2="effect1_dropShadow_41_39" result="shape"/>
</filter>
</defs>
</svg>
