<svg width="68" height="68" viewBox="0 0 68 68" fill="none" xmlns="http://www.w3.org/2000/svg">
<g filter="url(#filter0_d_41_9)">
<rect x="4" width="60" height="60" rx="10" fill="#83BFD2"/>
</g>
<path d="M30.472 31.904C30.728 30.32 31.48 28.144 32.728 25.376C33.976 22.608 35.368 20.168 36.904 18.056L36.856 17.888L32.608 17.96C31.536 17.992 30.816 18.024 30.448 18.056C30.32 18.072 30.208 18.192 30.112 18.416C30.032 18.624 29.896 19.144 29.704 19.976L28.6 19.856C28.568 19.344 28.552 18.744 28.552 18.056C28.552 17.352 28.6 16.704 28.696 16.112H38.56V17.552C35.152 22.864 33.296 27.752 32.992 32.216C32.816 32.264 32.584 32.288 32.296 32.288C31.48 32.288 30.872 32.16 30.472 31.904Z" fill="black"/>
<defs>
<filter id="filter0_d_41_9" x="0" y="0" width="68" height="68" filterUnits="userSpaceOnUse" color-interpolation-filters="sRGB">
<feFlood flood-opacity="0" result="BackgroundImageFix"/>
<feColorMatrix in="SourceAlpha" type="matrix" values="0 0 0 0 0 0 0 0 0 0 0 0 0 0 0 0 0 0 127 0" result="hardAlpha"/>
<feOffset dy="4"/>
<feGaussianBlur stdDeviation="2"/>
<feComposite in2="hardAlpha" operator="out"/>
<feColorMatrix type="matrix" values="0 0 0 0 0 0 0 0 0 0 0 0 0 0 0 0 0 0 0.25 0"/>
<feBlend mode="normal" in2="BackgroundImageFix" result="effect1_dropShadow_41_9"/>
<feBlend mode="normal" in="SourceGraphic" in2="effect1_dropShadow_41_9" result="shape"/>
</filter>
</defs>
</svg>
