<svg width="68" height="68" viewBox="0 0 68 68" fill="none" xmlns="http://www.w3.org/2000/svg">
<g filter="url(#filter0_d_41_86)">
<rect x="4" width="60" height="60" rx="10" fill="#25A639"/>
</g>
<path d="M29.472 31.904C29.728 30.32 30.48 28.144 31.728 25.376C32.976 22.608 34.368 20.168 35.904 18.056L35.856 17.888L31.608 17.96C30.536 17.992 29.816 18.024 29.448 18.056C29.32 18.072 29.208 18.192 29.112 18.416C29.032 18.624 28.896 19.144 28.704 19.976L27.6 19.856C27.568 19.344 27.552 18.744 27.552 18.056C27.552 17.352 27.6 16.704 27.696 16.112H37.56V17.552C34.152 22.864 32.296 27.752 31.992 32.216C31.816 32.264 31.584 32.288 31.296 32.288C30.48 32.288 29.872 32.16 29.472 31.904Z" fill="white"/>
<defs>
<filter id="filter0_d_41_86" x="0" y="0" width="68" height="68" filterUnits="userSpaceOnUse" color-interpolation-filters="sRGB">
<feFlood flood-opacity="0" result="BackgroundImageFix"/>
<feColorMatrix in="SourceAlpha" type="matrix" values="0 0 0 0 0 0 0 0 0 0 0 0 0 0 0 0 0 0 127 0" result="hardAlpha"/>
<feOffset dy="4"/>
<feGaussianBlur stdDeviation="2"/>
<feComposite in2="hardAlpha" operator="out"/>
<feColorMatrix type="matrix" values="0 0 0 0 0 0 0 0 0 0 0 0 0 0 0 0 0 0 0.25 0"/>
<feBlend mode="normal" in2="BackgroundImageFix" result="effect1_dropShadow_41_86"/>
<feBlend mode="normal" in="SourceGraphic" in2="effect1_dropShadow_41_86" result="shape"/>
</filter>
</defs>
</svg>
