<svg width="68" height="68" viewBox="0 0 68 68" fill="none" xmlns="http://www.w3.org/2000/svg">
<g filter="url(#filter0_d_41_24)">
<rect x="4" width="60" height="60" rx="10" fill="#83BFD2"/>
</g>
<path d="M28.368 18.12C28.368 16.84 28.824 15.792 29.736 14.976C30.648 14.16 31.816 13.752 33.24 13.752C34.184 13.752 35.176 13.984 36.216 14.448C36.76 14.704 37.208 15.096 37.56 15.624C37.912 16.152 38.088 16.784 38.088 17.52C38.088 18.96 37.464 20.144 36.216 21.072C35.848 21.328 35.552 21.456 35.328 21.456V21.672C35.424 21.672 35.552 21.712 35.712 21.792C36.672 22.288 37.408 22.84 37.92 23.448C38.432 24.056 38.688 24.816 38.688 25.728C38.688 27.056 38.168 28.136 37.128 28.968C36.104 29.8 34.76 30.216 33.096 30.216C31.976 30.216 30.872 30 29.784 29.568C29.192 29.328 28.704 28.936 28.32 28.392C27.952 27.848 27.768 27.192 27.768 26.424C27.768 24.872 28.544 23.576 30.096 22.536C30.528 22.28 30.832 22.152 31.008 22.152V21.936C30.912 21.936 30.784 21.896 30.624 21.816C29.12 20.904 28.368 19.672 28.368 18.12ZM33.072 14.952C32.192 14.952 31.536 15.224 31.104 15.768C30.672 16.312 30.456 16.864 30.456 17.424C30.456 17.984 30.544 18.44 30.72 18.792C30.912 19.128 31.208 19.44 31.608 19.728C32.264 20.192 33.08 20.632 34.056 21.048C35.4 20.136 36.072 19.032 36.072 17.736C36.072 16.84 35.792 16.152 35.232 15.672C34.688 15.192 33.968 14.952 33.072 14.952ZM33.288 28.896C34.36 28.896 35.152 28.632 35.664 28.104C36.176 27.56 36.432 27 36.432 26.424C36.432 25.848 36.328 25.376 36.12 25.008C35.912 24.64 35.584 24.312 35.136 24.024C34.448 23.576 33.592 23.152 32.568 22.752C32.456 22.704 32.376 22.672 32.328 22.656C32.056 22.752 31.68 23 31.2 23.4C30.256 24.216 29.784 25.104 29.784 26.064C29.784 27.008 30.104 27.72 30.744 28.2C31.384 28.664 32.232 28.896 33.288 28.896Z" fill="black"/>
<defs>
<filter id="filter0_d_41_24" x="0" y="0" width="68" height="68" filterUnits="userSpaceOnUse" color-interpolation-filters="sRGB">
<feFlood flood-opacity="0" result="BackgroundImageFix"/>
<feColorMatrix in="SourceAlpha" type="matrix" values="0 0 0 0 0 0 0 0 0 0 0 0 0 0 0 0 0 0 127 0" result="hardAlpha"/>
<feOffset dy="4"/>
<feGaussianBlur stdDeviation="2"/>
<feComposite in2="hardAlpha" operator="out"/>
<feColorMatrix type="matrix" values="0 0 0 0 0 0 0 0 0 0 0 0 0 0 0 0 0 0 0.25 0"/>
<feBlend mode="normal" in2="BackgroundImageFix" result="effect1_dropShadow_41_24"/>
<feBlend mode="normal" in="SourceGraphic" in2="effect1_dropShadow_41_24" result="shape"/>
</filter>
</defs>
</svg>
