<svg width="68" height="68" viewBox="0 0 68 68" fill="none" xmlns="http://www.w3.org/2000/svg">
<g filter="url(#filter0_d_41_101)">
<rect x="4" width="60" height="60" rx="10" fill="#25A639"/>
</g>
<path d="M24.368 18.12C24.368 16.84 24.824 15.792 25.736 14.976C26.648 14.16 27.816 13.752 29.24 13.752C30.184 13.752 31.176 13.984 32.216 14.448C32.76 14.704 33.208 15.096 33.56 15.624C33.912 16.152 34.088 16.784 34.088 17.52C34.088 18.96 33.464 20.144 32.216 21.072C31.848 21.328 31.552 21.456 31.328 21.456V21.672C31.424 21.672 31.552 21.712 31.712 21.792C32.672 22.288 33.408 22.84 33.92 23.448C34.432 24.056 34.688 24.816 34.688 25.728C34.688 27.056 34.168 28.136 33.128 28.968C32.104 29.8 30.76 30.216 29.096 30.216C27.976 30.216 26.872 30 25.784 29.568C25.192 29.328 24.704 28.936 24.32 28.392C23.952 27.848 23.768 27.192 23.768 26.424C23.768 24.872 24.544 23.576 26.096 22.536C26.528 22.28 26.832 22.152 27.008 22.152V21.936C26.912 21.936 26.784 21.896 26.624 21.816C25.12 20.904 24.368 19.672 24.368 18.12ZM29.072 14.952C28.192 14.952 27.536 15.224 27.104 15.768C26.672 16.312 26.456 16.864 26.456 17.424C26.456 17.984 26.544 18.44 26.72 18.792C26.912 19.128 27.208 19.44 27.608 19.728C28.264 20.192 29.08 20.632 30.056 21.048C31.4 20.136 32.072 19.032 32.072 17.736C32.072 16.84 31.792 16.152 31.232 15.672C30.688 15.192 29.968 14.952 29.072 14.952ZM29.288 28.896C30.36 28.896 31.152 28.632 31.664 28.104C32.176 27.56 32.432 27 32.432 26.424C32.432 25.848 32.328 25.376 32.12 25.008C31.912 24.64 31.584 24.312 31.136 24.024C30.448 23.576 29.592 23.152 28.568 22.752C28.456 22.704 28.376 22.672 28.328 22.656C28.056 22.752 27.68 23 27.2 23.4C26.256 24.216 25.784 25.104 25.784 26.064C25.784 27.008 26.104 27.72 26.744 28.2C27.384 28.664 28.232 28.896 29.288 28.896Z" fill="white"/>
<defs>
<filter id="filter0_d_41_101" x="0" y="0" width="68" height="68" filterUnits="userSpaceOnUse" color-interpolation-filters="sRGB">
<feFlood flood-opacity="0" result="BackgroundImageFix"/>
<feColorMatrix in="SourceAlpha" type="matrix" values="0 0 0 0 0 0 0 0 0 0 0 0 0 0 0 0 0 0 127 0" result="hardAlpha"/>
<feOffset dy="4"/>
<feGaussianBlur stdDeviation="2"/>
<feComposite in2="hardAlpha" operator="out"/>
<feColorMatrix type="matrix" values="0 0 0 0 0 0 0 0 0 0 0 0 0 0 0 0 0 0 0.25 0"/>
<feBlend mode="normal" in2="BackgroundImageFix" result="effect1_dropShadow_41_101"/>
<feBlend mode="normal" in="SourceGraphic" in2="effect1_dropShadow_41_101" result="shape"/>
</filter>
</defs>
</svg>
