<svg width="68" height="68" viewBox="0 0 68 68" fill="none" xmlns="http://www.w3.org/2000/svg">
<g filter="url(#filter0_d_41_113)">
<rect x="4" width="60" height="60" rx="10" fill="#25A639"/>
</g>
<path d="M28.448 26C27.184 26 26.104 25.528 25.208 24.584C24.312 23.64 23.864 22.44 23.864 20.984C23.864 19.528 24.352 18.296 25.328 17.288C26.32 16.264 27.6 15.752 29.168 15.752C30.736 15.752 31.984 16.32 32.912 17.456C33.84 18.576 34.304 20.064 34.304 21.92C34.304 24.192 33.632 26.352 32.288 28.4C31.616 29.424 30.68 30.288 29.48 30.992C28.28 31.712 26.904 32.144 25.352 32.288L25.184 31.208C27.04 30.776 28.48 30.04 29.504 29C30.528 27.976 31.256 26.536 31.688 24.68L31.496 24.608C30.744 25.536 29.728 26 28.448 26ZM28.784 16.928C27.904 16.928 27.24 17.264 26.792 17.936C26.36 18.608 26.144 19.52 26.144 20.672C26.144 21.808 26.432 22.704 27.008 23.36C27.6 24.016 28.28 24.344 29.048 24.344C29.832 24.344 30.552 24.168 31.208 23.816C31.592 23.608 31.824 23.312 31.904 22.928C32 22.544 32.048 22.072 32.048 21.512C32.048 20.136 31.776 19.032 31.232 18.2C30.704 17.352 29.888 16.928 28.784 16.928Z" fill="white"/>
<defs>
<filter id="filter0_d_41_113" x="0" y="0" width="68" height="68" filterUnits="userSpaceOnUse" color-interpolation-filters="sRGB">
<feFlood flood-opacity="0" result="BackgroundImageFix"/>
<feColorMatrix in="SourceAlpha" type="matrix" values="0 0 0 0 0 0 0 0 0 0 0 0 0 0 0 0 0 0 127 0" result="hardAlpha"/>
<feOffset dy="4"/>
<feGaussianBlur stdDeviation="2"/>
<feComposite in2="hardAlpha" operator="out"/>
<feColorMatrix type="matrix" values="0 0 0 0 0 0 0 0 0 0 0 0 0 0 0 0 0 0 0.25 0"/>
<feBlend mode="normal" in2="BackgroundImageFix" result="effect1_dropShadow_41_113"/>
<feBlend mode="normal" in="SourceGraphic" in2="effect1_dropShadow_41_113" result="shape"/>
</filter>
</defs>
</svg>
