<svg width="140" height="19" viewBox="0 0 140 19" fill="none" xmlns="http://www.w3.org/2000/svg">
<path d="M0.935406 13.92L0.383406 12.456L7.99141 2.184C8.88741 1.976 9.57541 1.872 10.0554 1.872L10.3194 2.112V12.528L12.7674 12.576L12.5514 13.944H10.3194V17.928C9.80741 18.024 9.17541 18.072 8.42341 18.072L8.15941 17.832V13.944H0.959406L0.935406 13.92ZM2.08741 12.24L2.18341 12.408L8.15941 12.504V4.992C8.15941 4.656 8.17541 4.416 8.20741 4.272L8.06341 4.2L2.51941 11.712C2.39141 11.904 2.24741 12.08 2.08741 12.24ZM17.4997 13.728C17.4997 14.144 17.3637 14.496 17.0917 14.784C16.8197 15.072 16.4677 15.216 16.0357 15.216C15.6037 15.216 15.2517 15.096 14.9797 14.856C14.7077 14.6 14.5717 14.256 14.5717 13.824C14.5717 13.376 14.6997 13.008 14.9557 12.72C15.2277 12.432 15.5797 12.288 16.0117 12.288C17.0037 12.288 17.4997 12.768 17.4997 13.728ZM24.5066 12C23.2426 12 22.1626 11.528 21.2666 10.584C20.3706 9.64 19.9226 8.44 19.9226 6.984C19.9226 5.528 20.4106 4.296 21.3866 3.288C22.3786 2.264 23.6586 1.752 25.2266 1.752C26.7946 1.752 28.0426 2.32 28.9706 3.456C29.8986 4.576 30.3626 6.064 30.3626 7.92C30.3626 10.192 29.6906 12.352 28.3466 14.4C27.6746 15.424 26.7386 16.288 25.5386 16.992C24.3386 17.712 22.9626 18.144 21.4106 18.288L21.2426 17.208C23.0986 16.776 24.5386 16.04 25.5626 15C26.5866 13.976 27.3146 12.536 27.7466 10.68L27.5546 10.608C26.8026 11.536 25.7866 12 24.5066 12ZM24.8426 2.928C23.9626 2.928 23.2986 3.264 22.8506 3.936C22.4186 4.608 22.2026 5.52 22.2026 6.672C22.2026 7.808 22.4906 8.704 23.0666 9.36C23.6586 10.016 24.3386 10.344 25.1066 10.344C25.8906 10.344 26.6106 10.168 27.2666 9.816C27.6506 9.608 27.8826 9.312 27.9626 8.928C28.0586 8.544 28.1066 8.072 28.1066 7.512C28.1066 6.136 27.8346 5.032 27.2906 4.2C26.7626 3.352 25.9466 2.928 24.8426 2.928ZM43.4816 8.376C43.4816 10.44 42.9696 12.096 41.9456 13.344C40.9376 14.592 39.5376 15.216 37.7456 15.216C35.9696 15.216 34.6016 14.64 33.6416 13.488C32.6816 12.32 32.2016 10.704 32.2016 8.64C32.2016 6.56 32.7056 4.896 33.7136 3.648C34.7376 2.384 36.1376 1.752 37.9136 1.752C39.7056 1.752 41.0816 2.336 42.0416 3.504C43.0016 4.672 43.4816 6.296 43.4816 8.376ZM38.0816 13.944C39.0096 13.944 39.6976 13.664 40.1456 13.104C40.4336 12.736 40.6736 12.144 40.8656 11.328C41.0576 10.512 41.1536 9.624 41.1536 8.664C41.1536 7.016 40.8496 5.664 40.2416 4.608C39.6496 3.552 38.7696 3.024 37.6016 3.024C36.6736 3.024 35.9856 3.304 35.5376 3.864C35.2496 4.232 35.0096 4.824 34.8176 5.64C34.6256 6.456 34.5296 7.344 34.5296 8.304C34.5296 9.952 34.8256 11.304 35.4176 12.36C36.0256 13.416 36.9136 13.944 38.0816 13.944ZM56.3019 8.376C56.3019 10.44 55.7899 12.096 54.7659 13.344C53.7579 14.592 52.3579 15.216 50.5659 15.216C48.7899 15.216 47.4219 14.64 46.4619 13.488C45.5019 12.32 45.0219 10.704 45.0219 8.64C45.0219 6.56 45.5259 4.896 46.5339 3.648C47.5579 2.384 48.9579 1.752 50.7339 1.752C52.5259 1.752 53.9019 2.336 54.8619 3.504C55.8219 4.672 56.3019 6.296 56.3019 8.376ZM50.9019 13.944C51.8299 13.944 52.5179 13.664 52.9659 13.104C53.2539 12.736 53.4939 12.144 53.6859 11.328C53.8779 10.512 53.9739 9.624 53.9739 8.664C53.9739 7.016 53.6699 5.664 53.0619 4.608C52.4699 3.552 51.5899 3.024 50.4219 3.024C49.4939 3.024 48.8059 3.304 48.3579 3.864C48.0699 4.232 47.8299 4.824 47.6379 5.64C47.4459 6.456 47.3499 7.344 47.3499 8.304C47.3499 9.952 47.6459 11.304 48.2379 12.36C48.8459 13.416 49.7339 13.944 50.9019 13.944ZM64.037 9.144V7.872H67.949V3.864H69.149V7.872H73.061V9.144H69.149V13.248H67.949V9.144H64.037ZM81.2435 15L81.0995 14.064C82.0115 13.92 82.6275 13.752 82.9475 13.56C83.2675 13.368 83.4275 13.08 83.4275 12.696V5.328C83.4275 4.528 83.3875 4.048 83.3075 3.888C83.2435 3.728 83.0515 3.648 82.7315 3.648C82.4275 3.648 81.8915 3.688 81.1235 3.768L80.9315 2.856C81.4115 2.648 82.1315 2.44 83.0915 2.232C84.0515 2.008 84.7955 1.888 85.3235 1.872L85.5875 2.112V13.272C85.5875 13.464 85.6275 13.592 85.7075 13.656C85.8035 13.704 85.9235 13.744 86.0675 13.776L87.9155 14.064L87.8195 15H81.2435ZM89.8239 18.312L89.7039 16.968C91.9279 16.68 93.6799 16.12 94.9599 15.288C96.2559 14.456 96.9039 13.432 96.9039 12.216C96.9039 11.448 96.6079 10.8 96.0159 10.272C95.4399 9.728 94.6319 9.456 93.5919 9.456C92.5519 9.456 91.5359 9.64 90.5439 10.008L90.0159 9.384L90.5439 2.112H96.6879C96.7679 2.112 96.8319 2.088 96.8799 2.04C97.0079 1.88 97.1599 1.32 97.3359 0.36L98.5599 0.527999C98.4959 2.032 98.3839 3.208 98.2239 4.056H91.9839L91.6959 8.352C92.4959 8.08 93.3839 7.944 94.3599 7.944C95.9439 7.944 97.1759 8.288 98.0559 8.976C98.9519 9.648 99.3999 10.568 99.3999 11.736C99.3999 13.416 98.5199 14.864 96.7599 16.08C94.9999 17.312 92.6879 18.056 89.8239 18.312ZM104.57 13.728C104.57 14.144 104.434 14.496 104.162 14.784C103.89 15.072 103.538 15.216 103.106 15.216C102.674 15.216 102.322 15.096 102.05 14.856C101.778 14.6 101.642 14.256 101.642 13.824C101.642 13.376 101.77 13.008 102.026 12.72C102.298 12.432 102.65 12.288 103.082 12.288C104.074 12.288 104.57 12.768 104.57 13.728ZM111.577 12C110.313 12 109.233 11.528 108.337 10.584C107.441 9.64 106.993 8.44 106.993 6.984C106.993 5.528 107.481 4.296 108.457 3.288C109.449 2.264 110.729 1.752 112.297 1.752C113.865 1.752 115.113 2.32 116.041 3.456C116.969 4.576 117.433 6.064 117.433 7.92C117.433 10.192 116.761 12.352 115.417 14.4C114.745 15.424 113.809 16.288 112.609 16.992C111.409 17.712 110.033 18.144 108.481 18.288L108.313 17.208C110.169 16.776 111.609 16.04 112.633 15C113.657 13.976 114.385 12.536 114.817 10.68L114.625 10.608C113.873 11.536 112.857 12 111.577 12ZM111.913 2.928C111.033 2.928 110.369 3.264 109.921 3.936C109.489 4.608 109.273 5.52 109.273 6.672C109.273 7.808 109.561 8.704 110.137 9.36C110.729 10.016 111.409 10.344 112.177 10.344C112.961 10.344 113.681 10.168 114.337 9.816C114.721 9.608 114.953 9.312 115.033 8.928C115.129 8.544 115.177 8.072 115.177 7.512C115.177 6.136 114.905 5.032 114.361 4.2C113.833 3.352 113.017 2.928 111.913 2.928ZM119.728 15L119.584 14.064C120.496 13.92 121.112 13.752 121.432 13.56C121.752 13.368 121.912 13.08 121.912 12.696V5.328C121.912 4.528 121.872 4.048 121.792 3.888C121.728 3.728 121.536 3.648 121.216 3.648C120.912 3.648 120.376 3.688 119.608 3.768L119.416 2.856C119.896 2.648 120.616 2.44 121.576 2.232C122.536 2.008 123.28 1.888 123.808 1.872L124.072 2.112V13.272C124.072 13.464 124.112 13.592 124.192 13.656C124.288 13.704 124.408 13.744 124.552 13.776L126.4 14.064L126.304 15H119.728ZM139.036 8.376C139.036 10.44 138.524 12.096 137.5 13.344C136.492 14.592 135.092 15.216 133.3 15.216C131.524 15.216 130.156 14.64 129.196 13.488C128.236 12.32 127.756 10.704 127.756 8.64C127.756 6.56 128.26 4.896 129.268 3.648C130.292 2.384 131.692 1.752 133.468 1.752C135.26 1.752 136.636 2.336 137.596 3.504C138.556 4.672 139.036 6.296 139.036 8.376ZM133.636 13.944C134.564 13.944 135.252 13.664 135.7 13.104C135.988 12.736 136.228 12.144 136.42 11.328C136.612 10.512 136.708 9.624 136.708 8.664C136.708 7.016 136.404 5.664 135.796 4.608C135.204 3.552 134.324 3.024 133.156 3.024C132.228 3.024 131.54 3.304 131.092 3.864C130.804 4.232 130.564 4.824 130.372 5.64C130.18 6.456 130.084 7.344 130.084 8.304C130.084 9.952 130.38 11.304 130.972 12.36C131.58 13.416 132.468 13.944 133.636 13.944Z" fill="white"/>
</svg>
