<svg width="64" height="18" viewBox="0 0 64 18" fill="none" xmlns="http://www.w3.org/2000/svg">
<path d="M9.82094 17H0.916938L1.15694 15.728C2.32494 14.896 3.17294 14.296 3.70094 13.928C4.24494 13.544 4.87694 13.064 5.59694 12.488C6.33294 11.912 6.84494 11.472 7.13294 11.168C7.42094 10.864 7.72494 10.496 8.04494 10.064C8.38094 9.616 8.59694 9.208 8.69294 8.84C8.78894 8.456 8.83694 7.976 8.83694 7.4C8.83694 6.824 8.63694 6.288 8.23694 5.792C7.83694 5.28 7.26094 5.024 6.50894 5.024C5.77294 5.024 5.23694 5.144 4.90094 5.384C4.46894 5.688 4.15694 6.552 3.96494 7.976L2.69294 7.832C2.69294 6.52 2.78894 5.528 2.98094 4.856C4.03694 4.12 5.46094 3.752 7.25294 3.752C8.51694 3.752 9.49294 4.072 10.1809 4.712C10.8849 5.352 11.2369 6.16 11.2369 7.136C11.2369 8.48 10.7009 9.744 9.62894 10.928C8.55694 12.112 6.68494 13.512 4.01294 15.128L4.03694 15.296L5.50094 15.248C7.16494 15.2 8.16494 15.144 8.50094 15.08C8.75694 15.016 9.06094 14.392 9.41294 13.208L10.5169 13.304C10.3889 14.632 10.1569 15.864 9.82094 17ZM17.2047 17.216C15.8767 17.216 14.8127 16.768 14.0127 15.872C13.2127 14.976 12.8127 13.768 12.8127 12.248C12.8127 9.768 13.4367 7.736 14.6847 6.152C15.9487 4.552 17.6927 3.752 19.9167 3.752C21.2607 3.752 22.3327 4.2 23.1327 5.096C23.9327 5.992 24.3327 7.208 24.3327 8.744C24.3327 11.208 23.7007 13.24 22.4367 14.84C21.1727 16.424 19.4287 17.216 17.2047 17.216ZM15.1887 11.936C15.1887 13.104 15.4127 14.064 15.8607 14.816C16.3087 15.568 16.9727 15.944 17.8527 15.944C18.7327 15.944 19.4287 15.672 19.9407 15.128C20.4687 14.584 20.9327 13.728 21.3327 12.56C21.7327 11.376 21.9327 10.2 21.9327 9.032C21.9327 7.848 21.7087 6.888 21.2607 6.152C20.8127 5.4 20.1487 5.024 19.2687 5.024C18.3887 5.024 17.6927 5.296 17.1807 5.84C16.6687 6.384 16.2047 7.248 15.7887 8.432C15.3887 9.6 15.1887 10.768 15.1887 11.936ZM28.0621 17.216C27.1341 17.216 26.6701 16.776 26.6701 15.896C26.6701 15.48 26.8221 15.112 27.1261 14.792C27.4301 14.456 27.8061 14.288 28.2541 14.288C29.1981 14.288 29.6701 14.696 29.6701 15.512C29.6701 15.976 29.5101 16.376 29.1901 16.712C28.8861 17.048 28.5101 17.216 28.0621 17.216ZM39.6289 8.456L39.5809 8.672C39.6769 8.672 39.7969 8.712 39.9409 8.792C40.6449 9.16 41.2049 9.68 41.6209 10.352C42.0529 11.008 42.2689 11.728 42.2689 12.512C42.2689 13.872 41.6449 15 40.3969 15.896C39.1649 16.776 37.7089 17.216 36.0289 17.216C34.8769 17.216 33.8209 16.992 32.8609 16.544C32.3489 16.304 31.9329 15.944 31.6129 15.464C31.3089 14.984 31.1569 14.424 31.1569 13.784C31.1569 12.808 31.4689 11.952 32.0929 11.216C32.7329 10.48 33.3569 9.952 33.9649 9.632C34.5889 9.312 34.9969 9.152 35.1889 9.152L35.2129 8.936C35.0849 8.936 34.9569 8.896 34.8289 8.816C33.7409 8.096 33.1969 7.048 33.1969 5.672C33.1969 4.296 33.6929 3.136 34.6849 2.192C35.6929 1.232 37.0209 0.751999 38.6689 0.751999C40.3169 0.751999 41.5649 1.192 42.4129 2.072C42.9249 2.6 43.1809 3.272 43.1809 4.088C43.1809 4.904 42.9249 5.68 42.4129 6.416C41.9169 7.136 41.3729 7.656 40.7809 7.976C40.2049 8.296 39.8209 8.456 39.6289 8.456ZM38.4289 8.048C39.6769 7.312 40.4849 6.528 40.8529 5.696C41.0289 5.296 41.1169 4.792 41.1169 4.184C41.1169 3.56 40.8849 3.032 40.4209 2.6C39.9569 2.168 39.2689 1.952 38.3569 1.952C37.4449 1.952 36.7249 2.272 36.1969 2.912C35.6849 3.536 35.4289 4.224 35.4289 4.976C35.4289 5.728 35.7409 6.352 36.3649 6.848C36.7809 7.168 37.4689 7.568 38.4289 8.048ZM36.4129 9.656C36.0449 9.768 35.4929 10.072 34.7569 10.568C34.3409 10.84 33.9809 11.224 33.6769 11.72C33.3729 12.216 33.2209 12.808 33.2209 13.496C33.2209 14.168 33.4929 14.736 34.0369 15.2C34.5969 15.664 35.4049 15.896 36.4609 15.896C37.5169 15.896 38.3489 15.64 38.9569 15.128C39.5809 14.616 39.8929 13.952 39.8929 13.136C39.8929 12.304 39.5329 11.624 38.8129 11.096C38.1089 10.552 37.3089 10.072 36.4129 9.656ZM50.0823 17H43.3863L43.4103 16.064C44.3543 15.92 45.0023 15.752 45.3543 15.56C45.7063 15.368 45.9223 15.08 46.0023 14.696L47.3703 7.328C47.4823 6.768 47.5383 6.376 47.5383 6.152C47.5383 5.912 47.4983 5.768 47.4183 5.72C47.3543 5.672 47.1783 5.648 46.8903 5.648C46.6023 5.648 46.0823 5.688 45.3303 5.768V4.856C45.8423 4.648 46.5943 4.44 47.5863 4.232C48.5943 4.008 49.3623 3.888 49.8903 3.872L50.1303 4.112L48.1383 14.792C48.1063 15.048 48.0903 15.216 48.0903 15.296C48.0903 15.584 48.2423 15.752 48.5463 15.8L50.2263 16.064L50.0823 17ZM56.7906 17.216C55.4626 17.216 54.3986 16.768 53.5986 15.872C52.7986 14.976 52.3986 13.768 52.3986 12.248C52.3986 9.768 53.0226 7.736 54.2706 6.152C55.5346 4.552 57.2786 3.752 59.5026 3.752C60.8466 3.752 61.9186 4.2 62.7186 5.096C63.5186 5.992 63.9186 7.208 63.9186 8.744C63.9186 11.208 63.2866 13.24 62.0226 14.84C60.7586 16.424 59.0146 17.216 56.7906 17.216ZM54.7746 11.936C54.7746 13.104 54.9986 14.064 55.4466 14.816C55.8946 15.568 56.5586 15.944 57.4386 15.944C58.3186 15.944 59.0146 15.672 59.5266 15.128C60.0546 14.584 60.5186 13.728 60.9186 12.56C61.3186 11.376 61.5186 10.2 61.5186 9.032C61.5186 7.848 61.2946 6.888 60.8466 6.152C60.3986 5.4 59.7346 5.024 58.8546 5.024C57.9746 5.024 57.2786 5.296 56.7666 5.84C56.2546 6.384 55.7906 7.248 55.3746 8.432C54.9746 9.6 54.7746 10.768 54.7746 11.936Z" fill="black"/>
</svg>
