<svg width="140" height="19" viewBox="0 0 140 19" fill="none" xmlns="http://www.w3.org/2000/svg">
<path d="M12.779 13.944H10.547L9.80297 17.928C9.29097 18.024 8.65097 18.072 7.88297 18.072L7.66697 17.832L8.38697 13.944H1.25897L1.23497 13.92L0.970969 12.456L10.403 2.184C11.331 1.976 12.035 1.872 12.515 1.872L12.755 2.112L10.811 12.528L13.259 12.576L12.779 13.944ZM8.65097 12.504L10.043 4.992C10.155 4.56 10.219 4.32 10.235 4.272L10.091 4.2L3.22697 11.712C3.09897 11.872 2.92297 12.048 2.69897 12.24L2.77097 12.408L8.65097 12.504ZM17.441 15.216C16.513 15.216 16.049 14.776 16.049 13.896C16.049 13.48 16.201 13.112 16.505 12.792C16.809 12.456 17.185 12.288 17.633 12.288C18.577 12.288 19.049 12.696 19.049 13.512C19.049 13.976 18.889 14.376 18.569 14.712C18.265 15.048 17.889 15.216 17.441 15.216ZM21.0878 18.288L21.1118 17.208C23.0158 16.76 24.5678 16.024 25.7678 15C26.9838 13.976 27.9198 12.536 28.5758 10.68L28.4078 10.608C27.5758 11.536 26.5598 12 25.3598 12C24.1598 12 23.1838 11.592 22.4318 10.776C21.6958 9.96 21.3278 8.904 21.3278 7.608C21.3278 5.96 21.9038 4.576 23.0558 3.456C24.2238 2.32 25.5998 1.752 27.1838 1.752C28.7838 1.752 29.9598 2.24 30.7118 3.216C31.4798 4.192 31.8638 5.432 31.8638 6.936C31.8638 9.304 31.0238 11.608 29.3438 13.848C28.5118 14.968 27.3758 15.928 25.9358 16.728C24.5118 17.544 22.8958 18.064 21.0878 18.288ZM25.9838 10.344C26.8798 10.344 27.5838 10.208 28.0958 9.936C28.6238 9.648 28.9758 9.312 29.1518 8.928C29.5038 8.16 29.6798 7.304 29.6798 6.36C29.6798 5.416 29.4478 4.608 28.9838 3.936C28.5198 3.264 27.8078 2.928 26.8478 2.928C25.9038 2.928 25.1438 3.368 24.5678 4.248C23.9918 5.112 23.7038 6.08 23.7038 7.152C23.7038 8.224 23.9278 9.024 24.3758 9.552C24.8238 10.08 25.3598 10.344 25.9838 10.344ZM37.6148 15.216C36.2868 15.216 35.2228 14.768 34.4228 13.872C33.6228 12.976 33.2228 11.768 33.2228 10.248C33.2228 7.768 33.8468 5.736 35.0948 4.152C36.3588 2.552 38.1028 1.752 40.3268 1.752C41.6708 1.752 42.7428 2.2 43.5428 3.096C44.3428 3.992 44.7428 5.208 44.7428 6.744C44.7428 9.208 44.1108 11.24 42.8468 12.84C41.5828 14.424 39.8388 15.216 37.6148 15.216ZM35.5988 9.936C35.5988 11.104 35.8228 12.064 36.2708 12.816C36.7188 13.568 37.3828 13.944 38.2628 13.944C39.1428 13.944 39.8388 13.672 40.3508 13.128C40.8788 12.584 41.3428 11.728 41.7428 10.56C42.1428 9.376 42.3428 8.2 42.3428 7.032C42.3428 5.848 42.1188 4.888 41.6708 4.152C41.2228 3.4 40.5588 3.024 39.6788 3.024C38.7988 3.024 38.1028 3.296 37.5908 3.84C37.0788 4.384 36.6148 5.248 36.1988 6.432C35.7988 7.6 35.5988 8.768 35.5988 9.936ZM50.2242 15.216C48.8962 15.216 47.8322 14.768 47.0322 13.872C46.2322 12.976 45.8322 11.768 45.8322 10.248C45.8322 7.768 46.4562 5.736 47.7042 4.152C48.9682 2.552 50.7122 1.752 52.9362 1.752C54.2802 1.752 55.3522 2.2 56.1522 3.096C56.9522 3.992 57.3522 5.208 57.3522 6.744C57.3522 9.208 56.7202 11.24 55.4562 12.84C54.1922 14.424 52.4482 15.216 50.2242 15.216ZM48.2082 9.936C48.2082 11.104 48.4322 12.064 48.8802 12.816C49.3282 13.568 49.9922 13.944 50.8722 13.944C51.7522 13.944 52.4482 13.672 52.9602 13.128C53.4882 12.584 53.9522 11.728 54.3522 10.56C54.7522 9.376 54.9522 8.2 54.9522 7.032C54.9522 5.848 54.7282 4.888 54.2802 4.152C53.8322 3.4 53.1682 3.024 52.2882 3.024C51.4082 3.024 50.7122 3.296 50.2002 3.84C49.6882 4.384 49.2242 5.248 48.8082 6.432C48.4082 7.6 48.2082 8.768 48.2082 9.936ZM69.7484 13.248H68.5484V9.144H64.6364V7.872H68.5484V3.864H69.7484V7.872H73.6604V9.144H69.7484V13.248ZM87.5549 15H80.8589L80.8829 14.064C81.8269 13.92 82.4749 13.752 82.8269 13.56C83.1789 13.368 83.3949 13.08 83.4749 12.696L84.8429 5.328C84.9549 4.768 85.0109 4.376 85.0109 4.152C85.0109 3.912 84.9709 3.768 84.8909 3.72C84.8269 3.672 84.6509 3.648 84.3629 3.648C84.0749 3.648 83.5549 3.688 82.8029 3.768V2.856C83.3149 2.648 84.0669 2.44 85.0589 2.232C86.0669 2.008 86.8349 1.888 87.3629 1.872L87.6029 2.112L85.6109 12.792C85.5789 13.048 85.5629 13.216 85.5629 13.296C85.5629 13.584 85.7149 13.752 86.0189 13.8L87.6989 14.064L87.5549 15ZM88.8153 18.312L88.9593 16.968C94.3673 16.296 97.0713 14.712 97.0713 12.216C97.0713 11.464 96.8153 10.816 96.3033 10.272C95.8073 9.728 95.0953 9.456 94.1673 9.456C93.2553 9.456 92.2473 9.56 91.1433 9.768L90.7113 9.144L92.5593 2.112H98.7033C98.7833 2.112 98.8713 2.064 98.9673 1.968C99.0793 1.856 99.3113 1.32 99.6633 0.36L100.863 0.527999C100.527 1.984 100.199 3.16 99.8793 4.056H93.6393L92.5833 8.112C93.4953 8 94.3113 7.944 95.0313 7.944C96.5833 7.944 97.7433 8.272 98.5113 8.928C99.2953 9.584 99.6873 10.464 99.6873 11.568C99.6873 13.376 98.6873 14.88 96.6873 16.08C94.6873 17.28 92.0633 18.024 88.8153 18.312ZM104.089 15.216C103.161 15.216 102.697 14.776 102.697 13.896C102.697 13.48 102.849 13.112 103.153 12.792C103.457 12.456 103.833 12.288 104.281 12.288C105.225 12.288 105.697 12.696 105.697 13.512C105.697 13.976 105.537 14.376 105.217 14.712C104.913 15.048 104.537 15.216 104.089 15.216ZM107.736 18.288L107.76 17.208C109.664 16.76 111.216 16.024 112.416 15C113.632 13.976 114.568 12.536 115.224 10.68L115.056 10.608C114.224 11.536 113.208 12 112.008 12C110.808 12 109.832 11.592 109.08 10.776C108.344 9.96 107.976 8.904 107.976 7.608C107.976 5.96 108.552 4.576 109.704 3.456C110.872 2.32 112.248 1.752 113.832 1.752C115.432 1.752 116.608 2.24 117.36 3.216C118.128 4.192 118.512 5.432 118.512 6.936C118.512 9.304 117.672 11.608 115.992 13.848C115.16 14.968 114.024 15.928 112.584 16.728C111.16 17.544 109.544 18.064 107.736 18.288ZM112.632 10.344C113.528 10.344 114.232 10.208 114.744 9.936C115.272 9.648 115.624 9.312 115.8 8.928C116.152 8.16 116.328 7.304 116.328 6.36C116.328 5.416 116.096 4.608 115.632 3.936C115.168 3.264 114.456 2.928 113.496 2.928C112.552 2.928 111.792 3.368 111.216 4.248C110.64 5.112 110.352 6.08 110.352 7.152C110.352 8.224 110.576 9.024 111.024 9.552C111.472 10.08 112.008 10.344 112.632 10.344ZM126.039 15H119.343L119.367 14.064C120.311 13.92 120.959 13.752 121.311 13.56C121.663 13.368 121.879 13.08 121.959 12.696L123.327 5.328C123.439 4.768 123.495 4.376 123.495 4.152C123.495 3.912 123.455 3.768 123.375 3.72C123.311 3.672 123.135 3.648 122.847 3.648C122.559 3.648 122.039 3.688 121.287 3.768V2.856C121.799 2.648 122.551 2.44 123.543 2.232C124.551 2.008 125.319 1.888 125.847 1.872L126.087 2.112L124.095 12.792C124.063 13.048 124.047 13.216 124.047 13.296C124.047 13.584 124.199 13.752 124.503 13.8L126.183 14.064L126.039 15ZM132.748 15.216C131.42 15.216 130.356 14.768 129.556 13.872C128.756 12.976 128.356 11.768 128.356 10.248C128.356 7.768 128.98 5.736 130.228 4.152C131.492 2.552 133.236 1.752 135.46 1.752C136.804 1.752 137.876 2.2 138.676 3.096C139.476 3.992 139.876 5.208 139.876 6.744C139.876 9.208 139.244 11.24 137.98 12.84C136.716 14.424 134.972 15.216 132.748 15.216ZM130.732 9.936C130.732 11.104 130.956 12.064 131.404 12.816C131.852 13.568 132.516 13.944 133.396 13.944C134.276 13.944 134.972 13.672 135.484 13.128C136.012 12.584 136.476 11.728 136.876 10.56C137.276 9.376 137.476 8.2 137.476 7.032C137.476 5.848 137.252 4.888 136.804 4.152C136.356 3.4 135.692 3.024 134.812 3.024C133.932 3.024 133.236 3.296 132.724 3.84C132.212 4.384 131.748 5.248 131.332 6.432C130.932 7.6 130.732 8.768 130.732 9.936Z" fill="black" fill-opacity="0.7"/>
</svg>
