<svg width="64" height="18" viewBox="0 0 64 18" fill="none" xmlns="http://www.w3.org/2000/svg">
<path d="M0.759063 17V15.728C3.57506 13.44 5.23906 11.992 5.75106 11.384C6.59906 10.392 7.08706 9.664 7.21506 9.2C7.34306 8.736 7.40706 8.304 7.40706 7.904C7.40706 7.072 7.16706 6.384 6.68706 5.84C6.20706 5.296 5.55906 5.024 4.74306 5.024C3.92706 5.024 3.36706 5.144 3.06306 5.384C2.87106 5.544 2.68706 6.408 2.51106 7.976L1.21506 7.832C1.08706 7.256 1.02306 6.656 1.02306 6.032C1.02306 5.408 1.03106 5.016 1.04706 4.856C1.97506 4.12 3.24706 3.752 4.86306 3.752C6.49506 3.752 7.71106 4.096 8.51106 4.784C9.32706 5.472 9.73506 6.408 9.73506 7.592C9.73506 8.76 9.23906 9.936 8.24706 11.12C7.25506 12.304 5.67906 13.64 3.51906 15.128L3.56706 15.296L5.00706 15.248C7.07106 15.184 8.23106 15.128 8.48706 15.08C8.75906 15.016 9.06306 14.392 9.39906 13.208L10.5031 13.304C10.5191 13.448 10.5271 13.688 10.5271 14.024C10.5271 15.128 10.3991 16.12 10.1431 17H0.759063ZM23.4308 10.376C23.4308 12.44 22.9188 14.096 21.8948 15.344C20.8868 16.592 19.4868 17.216 17.6948 17.216C15.9188 17.216 14.5508 16.64 13.5908 15.488C12.6308 14.32 12.1508 12.704 12.1508 10.64C12.1508 8.56 12.6548 6.896 13.6628 5.648C14.6868 4.384 16.0868 3.752 17.8628 3.752C19.6548 3.752 21.0308 4.336 21.9908 5.504C22.9508 6.672 23.4308 8.296 23.4308 10.376ZM18.0308 15.944C18.9588 15.944 19.6468 15.664 20.0948 15.104C20.3828 14.736 20.6228 14.144 20.8148 13.328C21.0068 12.512 21.1028 11.624 21.1028 10.664C21.1028 9.016 20.7988 7.664 20.1908 6.608C19.5988 5.552 18.7188 5.024 17.5508 5.024C16.6228 5.024 15.9348 5.304 15.4868 5.864C15.1988 6.232 14.9588 6.824 14.7668 7.64C14.5748 8.456 14.4788 9.344 14.4788 10.304C14.4788 11.952 14.7748 13.304 15.3668 14.36C15.9748 15.416 16.8628 15.944 18.0308 15.944ZM28.6911 15.728C28.6911 16.144 28.5551 16.496 28.2831 16.784C28.0111 17.072 27.6591 17.216 27.2271 17.216C26.7951 17.216 26.4431 17.096 26.1711 16.856C25.8991 16.6 25.7631 16.256 25.7631 15.824C25.7631 15.376 25.8911 15.008 26.1471 14.72C26.4191 14.432 26.7711 14.288 27.2031 14.288C28.1951 14.288 28.6911 14.768 28.6911 15.728ZM31.618 5.12C31.618 3.84 32.074 2.792 32.986 1.976C33.898 1.16 35.066 0.751999 36.49 0.751999C37.434 0.751999 38.426 0.983999 39.466 1.448C40.01 1.704 40.458 2.096 40.81 2.624C41.162 3.152 41.338 3.784 41.338 4.52C41.338 5.96 40.714 7.144 39.466 8.072C39.098 8.328 38.802 8.456 38.578 8.456V8.672C38.674 8.672 38.802 8.712 38.962 8.792C39.922 9.288 40.658 9.84 41.17 10.448C41.682 11.056 41.938 11.816 41.938 12.728C41.938 14.056 41.418 15.136 40.378 15.968C39.354 16.8 38.01 17.216 36.346 17.216C35.226 17.216 34.122 17 33.034 16.568C32.442 16.328 31.954 15.936 31.57 15.392C31.202 14.848 31.018 14.192 31.018 13.424C31.018 11.872 31.794 10.576 33.346 9.536C33.778 9.28 34.082 9.152 34.258 9.152V8.936C34.162 8.936 34.034 8.896 33.874 8.816C32.37 7.904 31.618 6.672 31.618 5.12ZM36.322 1.952C35.442 1.952 34.786 2.224 34.354 2.768C33.922 3.312 33.706 3.864 33.706 4.424C33.706 4.984 33.794 5.44 33.97 5.792C34.162 6.128 34.458 6.44 34.858 6.728C35.514 7.192 36.33 7.632 37.306 8.048C38.65 7.136 39.322 6.032 39.322 4.736C39.322 3.84 39.042 3.152 38.482 2.672C37.938 2.192 37.218 1.952 36.322 1.952ZM36.538 15.896C37.61 15.896 38.402 15.632 38.914 15.104C39.426 14.56 39.682 14 39.682 13.424C39.682 12.848 39.578 12.376 39.37 12.008C39.162 11.64 38.834 11.312 38.386 11.024C37.698 10.576 36.842 10.152 35.818 9.752C35.706 9.704 35.626 9.672 35.578 9.656C35.306 9.752 34.93 10 34.45 10.4C33.506 11.216 33.034 12.104 33.034 13.064C33.034 14.008 33.354 14.72 33.994 15.2C34.634 15.664 35.482 15.896 36.538 15.896ZM43.9193 17L43.7753 16.064C44.6873 15.92 45.3033 15.752 45.6233 15.56C45.9433 15.368 46.1033 15.08 46.1033 14.696V7.328C46.1033 6.528 46.0633 6.048 45.9833 5.888C45.9193 5.728 45.7273 5.648 45.4073 5.648C45.1033 5.648 44.5673 5.688 43.7993 5.768L43.6073 4.856C44.0873 4.648 44.8073 4.44 45.7673 4.232C46.7273 4.008 47.4713 3.888 47.9993 3.872L48.2633 4.112V15.272C48.2633 15.464 48.3033 15.592 48.3833 15.656C48.4793 15.704 48.5993 15.744 48.7433 15.776L50.5913 16.064L50.4953 17H43.9193ZM63.2277 10.376C63.2277 12.44 62.7157 14.096 61.6917 15.344C60.6837 16.592 59.2837 17.216 57.4917 17.216C55.7157 17.216 54.3477 16.64 53.3877 15.488C52.4277 14.32 51.9477 12.704 51.9477 10.64C51.9477 8.56 52.4517 6.896 53.4597 5.648C54.4837 4.384 55.8837 3.752 57.6597 3.752C59.4517 3.752 60.8277 4.336 61.7877 5.504C62.7477 6.672 63.2277 8.296 63.2277 10.376ZM57.8277 15.944C58.7557 15.944 59.4437 15.664 59.8917 15.104C60.1797 14.736 60.4197 14.144 60.6117 13.328C60.8037 12.512 60.8997 11.624 60.8997 10.664C60.8997 9.016 60.5957 7.664 59.9877 6.608C59.3957 5.552 58.5157 5.024 57.3477 5.024C56.4197 5.024 55.7317 5.304 55.2837 5.864C54.9957 6.232 54.7557 6.824 54.5637 7.64C54.3717 8.456 54.2757 9.344 54.2757 10.304C54.2757 11.952 54.5717 13.304 55.1637 14.36C55.7717 15.416 56.6597 15.944 57.8277 15.944Z" fill="white"/>
</svg>
