<svg width="173" height="68" viewBox="0 0 173 68" fill="none" xmlns="http://www.w3.org/2000/svg">
<rect width="173" height="68" rx="16" fill="#D9D9D9"/>
<path d="M40.964 19.974C41.3187 20.03 41.6407 20.1747 41.93 20.408C42.2287 20.6413 42.462 20.9307 42.63 21.276C42.8073 21.6213 42.896 21.99 42.896 22.382C42.896 22.8767 42.77 23.3247 42.518 23.726C42.266 24.118 41.8973 24.4307 41.412 24.664C40.936 24.888 40.3713 25 39.718 25H36.078V15.242H39.578C40.2407 15.242 40.8053 15.354 41.272 15.578C41.7387 15.7927 42.0887 16.0867 42.322 16.46C42.5553 16.8333 42.672 17.2533 42.672 17.72C42.672 18.2987 42.5133 18.7793 42.196 19.162C41.888 19.5353 41.4773 19.806 40.964 19.974ZM37.352 19.456H39.494C40.0913 19.456 40.5533 19.316 40.88 19.036C41.2067 18.756 41.37 18.3687 41.37 17.874C41.37 17.3793 41.2067 16.992 40.88 16.712C40.5533 16.432 40.082 16.292 39.466 16.292H37.352V19.456ZM39.606 23.95C40.2407 23.95 40.7353 23.8007 41.09 23.502C41.4447 23.2033 41.622 22.788 41.622 22.256C41.622 21.7147 41.4353 21.29 41.062 20.982C40.6887 20.6647 40.1893 20.506 39.564 20.506H37.352V23.95H39.606ZM45.9379 18.574C46.1619 18.1353 46.4793 17.7947 46.8899 17.552C47.3099 17.3093 47.8186 17.188 48.4159 17.188V18.504H48.0799C46.6519 18.504 45.9379 19.2787 45.9379 20.828V25H44.6639V17.328H45.9379V18.574ZM49.4106 21.136C49.4106 20.352 49.5693 19.666 49.8866 19.078C50.2039 18.4807 50.6379 18.0187 51.1886 17.692C51.7486 17.3653 52.3693 17.202 53.0506 17.202C53.7226 17.202 54.3059 17.3467 54.8006 17.636C55.2953 17.9253 55.6639 18.2893 55.9066 18.728V17.328H57.1946V25H55.9066V23.572C55.6546 24.02 55.2766 24.3933 54.7726 24.692C54.2779 24.9813 53.6993 25.126 53.0366 25.126C52.3553 25.126 51.7393 24.958 51.1886 24.622C50.6379 24.286 50.2039 23.8147 49.8866 23.208C49.5693 22.6013 49.4106 21.9107 49.4106 21.136ZM55.9066 21.15C55.9066 20.5713 55.7899 20.0673 55.5566 19.638C55.3233 19.2087 55.0059 18.882 54.6046 18.658C54.2126 18.4247 53.7786 18.308 53.3026 18.308C52.8266 18.308 52.3926 18.42 52.0006 18.644C51.6086 18.868 51.2959 19.1947 51.0626 19.624C50.8293 20.0533 50.7126 20.5573 50.7126 21.136C50.7126 21.724 50.8293 22.2373 51.0626 22.676C51.2959 23.1053 51.6086 23.4367 52.0006 23.67C52.3926 23.894 52.8266 24.006 53.3026 24.006C53.7786 24.006 54.2126 23.894 54.6046 23.67C55.0059 23.4367 55.3233 23.1053 55.5566 22.676C55.7899 22.2373 55.9066 21.7287 55.9066 21.15ZM63.0855 17.188C64.0189 17.188 64.7749 17.4727 65.3535 18.042C65.9322 18.602 66.2215 19.414 66.2215 20.478V25H64.9615V20.66C64.9615 19.8947 64.7702 19.3113 64.3875 18.91C64.0049 18.4993 63.4822 18.294 62.8195 18.294C62.1475 18.294 61.6109 18.504 61.2095 18.924C60.8175 19.344 60.6215 19.9553 60.6215 20.758V25H59.3475V17.328H60.6215V18.42C60.8735 18.028 61.2142 17.7247 61.6435 17.51C62.0822 17.2953 62.5629 17.188 63.0855 17.188ZM67.8266 21.136C67.8266 20.352 67.9853 19.666 68.3026 19.078C68.6199 18.4807 69.0539 18.0187 69.6046 17.692C70.1646 17.3653 70.7899 17.202 71.4806 17.202C72.0779 17.202 72.6333 17.342 73.1466 17.622C73.6599 17.8927 74.0519 18.252 74.3226 18.7V14.64H75.6106V25H74.3226V23.558C74.0706 24.0153 73.6973 24.3933 73.2026 24.692C72.7079 24.9813 72.1293 25.126 71.4666 25.126C70.7853 25.126 70.1646 24.958 69.6046 24.622C69.0539 24.286 68.6199 23.8147 68.3026 23.208C67.9853 22.6013 67.8266 21.9107 67.8266 21.136ZM74.3226 21.15C74.3226 20.5713 74.2059 20.0673 73.9726 19.638C73.7393 19.2087 73.4219 18.882 73.0206 18.658C72.6286 18.4247 72.1946 18.308 71.7186 18.308C71.2426 18.308 70.8086 18.42 70.4166 18.644C70.0246 18.868 69.7119 19.1947 69.4786 19.624C69.2453 20.0533 69.1286 20.5573 69.1286 21.136C69.1286 21.724 69.2453 22.2373 69.4786 22.676C69.7119 23.1053 70.0246 23.4367 70.4166 23.67C70.8086 23.894 71.2426 24.006 71.7186 24.006C72.1946 24.006 72.6286 23.894 73.0206 23.67C73.4219 23.4367 73.7393 23.1053 73.9726 22.676C74.2059 22.2373 74.3226 21.7287 74.3226 21.15ZM78.1695 25.084C77.9269 25.084 77.7215 25 77.5535 24.832C77.3855 24.664 77.3015 24.4587 77.3015 24.216C77.3015 23.9733 77.3855 23.768 77.5535 23.6C77.7215 23.432 77.9269 23.348 78.1695 23.348C78.4029 23.348 78.5989 23.432 78.7575 23.6C78.9255 23.768 79.0095 23.9733 79.0095 24.216C79.0095 24.4587 78.9255 24.664 78.7575 24.832C78.5989 25 78.4029 25.084 78.1695 25.084ZM78.1695 19.092C77.9269 19.092 77.7215 19.008 77.5535 18.84C77.3855 18.672 77.3015 18.4667 77.3015 18.224C77.3015 17.9813 77.3855 17.776 77.5535 17.608C77.7215 17.44 77.9269 17.356 78.1695 17.356C78.4029 17.356 78.5989 17.44 78.7575 17.608C78.9255 17.776 79.0095 17.9813 79.0095 18.224C79.0095 18.4667 78.9255 18.672 78.7575 18.84C78.5989 19.008 78.4029 19.092 78.1695 19.092Z" fill="#666666"/>
<path d="M21 22.95L23.775 25.05C23.975 25.1833 24.175 25.1873 24.375 25.062C24.575 24.9373 24.6333 24.7583 24.55 24.525L23.5 21.05L26.225 19.1C26.425 18.95 26.4833 18.7623 26.4 18.537C26.3167 18.3123 26.1583 18.2 25.925 18.2H22.6L21.475 14.55C21.3917 14.3167 21.2333 14.2 21 14.2C20.7667 14.2 20.6083 14.3167 20.525 14.55L19.4 18.2H16.075C15.8417 18.2 15.6833 18.3123 15.6 18.537C15.5167 18.7623 15.575 18.95 15.775 19.1L18.5 21.05L17.45 24.525C17.3667 24.7583 17.425 24.9373 17.625 25.062C17.825 25.1873 18.025 25.1833 18.225 25.05L21 22.95ZM21 30C19.6167 30 18.3167 29.7373 17.1 29.212C15.8833 28.6873 14.825 27.975 13.925 27.075C13.025 26.175 12.3127 25.1167 11.788 23.9C11.2627 22.6833 11 21.3833 11 20C11 18.6167 11.2627 17.3167 11.788 16.1C12.3127 14.8833 13.025 13.825 13.925 12.925C14.825 12.025 15.8833 11.3123 17.1 10.787C18.3167 10.2623 19.6167 10 21 10C22.3833 10 23.6833 10.2623 24.9 10.787C26.1167 11.3123 27.175 12.025 28.075 12.925C28.975 13.825 29.6873 14.8833 30.212 16.1C30.7373 17.3167 31 18.6167 31 20C31 21.3833 30.7373 22.6833 30.212 23.9C29.6873 25.1167 28.975 26.175 28.075 27.075C27.175 27.975 26.1167 28.6873 24.9 29.212C23.6833 29.7373 22.3833 30 21 30ZM21 28C23.2167 28 25.1043 27.221 26.663 25.663C28.221 24.1043 29 22.2167 29 20C29 17.7833 28.221 15.8957 26.663 14.337C25.1043 12.779 23.2167 12 21 12C18.7833 12 16.896 12.779 15.338 14.337C13.7793 15.8957 13 17.7833 13 20C13 22.2167 13.7793 24.1043 15.338 25.663C16.896 27.221 18.7833 28 21 28Z" fill="#666666"/>
</svg>
