<svg width="46" height="66" viewBox="0 0 46 66" fill="none" xmlns="http://www.w3.org/2000/svg">
<circle r="23" transform="matrix(-1 0 0 1 23 23)" fill="#F7FADC"/>
<path d="M12.794 60.126C12.206 60.126 11.6787 60.028 11.212 59.832C10.7453 59.6267 10.3767 59.3467 10.106 58.992C9.83533 58.628 9.686 58.2127 9.658 57.746H10.974C11.0113 58.1287 11.1887 58.4413 11.506 58.684C11.8327 58.9267 12.2573 59.048 12.78 59.048C13.2653 59.048 13.648 58.9407 13.928 58.726C14.208 58.5113 14.348 58.2407 14.348 57.914C14.348 57.578 14.1987 57.3307 13.9 57.172C13.6013 57.004 13.1393 56.8407 12.514 56.682C11.9447 56.5327 11.478 56.3833 11.114 56.234C10.7593 56.0753 10.4513 55.8467 10.19 55.548C9.938 55.24 9.812 54.8387 9.812 54.344C9.812 53.952 9.92867 53.5927 10.162 53.266C10.3953 52.9393 10.7267 52.6827 11.156 52.496C11.5853 52.3 12.0753 52.202 12.626 52.202C13.4753 52.202 14.1613 52.4167 14.684 52.846C15.2067 53.2753 15.4867 53.8633 15.524 54.61H14.25C14.222 54.2087 14.0587 53.8867 13.76 53.644C13.4707 53.4013 13.0787 53.28 12.584 53.28C12.1267 53.28 11.7627 53.378 11.492 53.574C11.2213 53.77 11.086 54.0267 11.086 54.344C11.086 54.596 11.1653 54.806 11.324 54.974C11.492 55.1327 11.6973 55.2633 11.94 55.366C12.192 55.4593 12.5373 55.5667 12.976 55.688C13.5267 55.8373 13.9747 55.9867 14.32 56.136C14.6653 56.276 14.9593 56.4907 15.202 56.78C15.454 57.0693 15.5847 57.4473 15.594 57.914C15.594 58.334 15.4773 58.712 15.244 59.048C15.0107 59.384 14.6793 59.65 14.25 59.846C13.83 60.0327 13.3447 60.126 12.794 60.126ZM18.9465 53.378V57.9C18.9465 58.2733 19.0258 58.5393 19.1845 58.698C19.3431 58.8473 19.6185 58.922 20.0105 58.922H20.9485V60H19.8005C19.0911 60 18.5591 59.8367 18.2045 59.51C17.8498 59.1833 17.6725 58.6467 17.6725 57.9V53.378H16.6785V52.328H17.6725V50.396H18.9465V52.328H20.9485V53.378H18.9465ZM25.8381 60.126C25.1194 60.126 24.4661 59.9627 23.8781 59.636C23.2994 59.3093 22.8421 58.8473 22.5061 58.25C22.1794 57.6433 22.0161 56.9433 22.0161 56.15C22.0161 55.366 22.1841 54.6753 22.5201 54.078C22.8654 53.4713 23.3321 53.0093 23.9201 52.692C24.5081 52.3653 25.1661 52.202 25.8941 52.202C26.6221 52.202 27.2801 52.3653 27.8681 52.692C28.4561 53.0093 28.9181 53.4667 29.2541 54.064C29.5994 54.6613 29.7721 55.3567 29.7721 56.15C29.7721 56.9433 29.5947 57.6433 29.2401 58.25C28.8947 58.8473 28.4234 59.3093 27.8261 59.636C27.2287 59.9627 26.5661 60.126 25.8381 60.126ZM25.8381 59.006C26.2954 59.006 26.7247 58.8987 27.1261 58.684C27.5274 58.4693 27.8494 58.1473 28.0921 57.718C28.3441 57.2887 28.4701 56.766 28.4701 56.15C28.4701 55.534 28.3487 55.0113 28.1061 54.582C27.8634 54.1527 27.5461 53.8353 27.1541 53.63C26.7621 53.4153 26.3374 53.308 25.8801 53.308C25.4134 53.308 24.9841 53.4153 24.5921 53.63C24.2094 53.8353 23.9014 54.1527 23.6681 54.582C23.4347 55.0113 23.3181 55.534 23.3181 56.15C23.3181 56.7753 23.4301 57.3027 23.6541 57.732C23.8874 58.1613 24.1954 58.4833 24.5781 58.698C24.9607 58.9033 25.3807 59.006 25.8381 59.006ZM32.7211 53.742C32.9731 53.3033 33.3465 52.9393 33.8411 52.65C34.3451 52.3513 34.9285 52.202 35.5911 52.202C36.2725 52.202 36.8885 52.3653 37.4391 52.692C37.9991 53.0187 38.4378 53.4807 38.7551 54.078C39.0725 54.666 39.2311 55.352 39.2311 56.136C39.2311 56.9107 39.0725 57.6013 38.7551 58.208C38.4378 58.8147 37.9991 59.286 37.4391 59.622C36.8885 59.958 36.2725 60.126 35.5911 60.126C34.9378 60.126 34.3591 59.9813 33.8551 59.692C33.3605 59.3933 32.9825 59.0247 32.7211 58.586V63.64H31.4471V52.328H32.7211V53.742ZM37.9291 56.136C37.9291 55.5573 37.8125 55.0533 37.5791 54.624C37.3458 54.1947 37.0285 53.868 36.6271 53.644C36.2351 53.42 35.8011 53.308 35.3251 53.308C34.8585 53.308 34.4245 53.4247 34.0231 53.658C33.6311 53.882 33.3138 54.2133 33.0711 54.652C32.8378 55.0813 32.7211 55.5807 32.7211 56.15C32.7211 56.7287 32.8378 57.2373 33.0711 57.676C33.3138 58.1053 33.6311 58.4367 34.0231 58.67C34.4245 58.894 34.8585 59.006 35.3251 59.006C35.8011 59.006 36.2351 58.894 36.6271 58.67C37.0285 58.4367 37.3458 58.1053 37.5791 57.676C37.8125 57.2373 37.9291 56.724 37.9291 56.136Z" fill="#F7FADC"/>
<path d="M18 16.5C18 15.6716 18.6716 15 19.5 15V15C20.3284 15 21 15.6716 21 16.5V29.5C21 30.3284 20.3284 31 19.5 31V31C18.6716 31 18 30.3284 18 29.5V16.5Z" fill="#0D1171"/>
<path d="M24 16.5C24 15.6716 24.6716 15 25.5 15V15C26.3284 15 27 15.6716 27 16.5V29.5C27 30.3284 26.3284 31 25.5 31V31C24.6716 31 24 30.3284 24 29.5V16.5Z" fill="#0D1171"/>
<path d="M23 41.375C27.8734 41.375 32.5471 39.4391 35.9931 35.9931C39.4391 32.5471 41.375 27.8734 41.375 23C41.375 18.1266 39.4391 13.4529 35.9931 10.0069C32.5471 6.56093 27.8734 4.625 23 4.625C18.1266 4.625 13.4529 6.56093 10.0069 10.0069C6.56093 13.4529 4.625 18.1266 4.625 23C4.625 27.8734 6.56093 32.5471 10.0069 35.9931C13.4529 39.4391 18.1266 41.375 23 41.375ZM23 44C17.4305 44 12.089 41.7875 8.15076 37.8492C4.21249 33.911 2 28.5695 2 23C2 17.4305 4.21249 12.089 8.15076 8.15076C12.089 4.21249 17.4305 2 23 2C28.5695 2 33.911 4.21249 37.8492 8.15076C41.7875 12.089 44 17.4305 44 23C44 28.5695 41.7875 33.911 37.8492 37.8492C33.911 41.7875 28.5695 44 23 44V44Z" fill="#0D1171"/>
</svg>
