<svg width="46" height="66" viewBox="0 0 46 66" fill="none" xmlns="http://www.w3.org/2000/svg">
<path d="M19.424 60.126C18.7053 60.126 18.052 59.9627 17.464 59.636C16.8853 59.3093 16.428 58.8473 16.092 58.25C15.7653 57.6433 15.602 56.9433 15.602 56.15C15.602 55.366 15.77 54.6753 16.106 54.078C16.4513 53.4713 16.918 53.0093 17.506 52.692C18.094 52.3653 18.752 52.202 19.48 52.202C20.208 52.202 20.866 52.3653 21.454 52.692C22.042 53.0093 22.504 53.4667 22.84 54.064C23.1853 54.6613 23.358 55.3567 23.358 56.15C23.358 56.9433 23.1807 57.6433 22.826 58.25C22.4807 58.8473 22.0093 59.3093 21.412 59.636C20.8147 59.9627 20.152 60.126 19.424 60.126ZM19.424 59.006C19.8813 59.006 20.3107 58.8987 20.712 58.684C21.1133 58.4693 21.4353 58.1473 21.678 57.718C21.93 57.2887 22.056 56.766 22.056 56.15C22.056 55.534 21.9347 55.0113 21.692 54.582C21.4493 54.1527 21.132 53.8353 20.74 53.63C20.348 53.4153 19.9233 53.308 19.466 53.308C18.9993 53.308 18.57 53.4153 18.178 53.63C17.7953 53.8353 17.4873 54.1527 17.254 54.582C17.0207 55.0113 16.904 55.534 16.904 56.15C16.904 56.7753 17.016 57.3027 17.24 57.732C17.4733 58.1613 17.7813 58.4833 18.164 58.698C18.5467 58.9033 18.9667 59.006 19.424 59.006ZM28.7711 52.188C29.7044 52.188 30.4604 52.4727 31.0391 53.042C31.6177 53.602 31.9071 54.414 31.9071 55.478V60H30.6471V55.66C30.6471 54.8947 30.4557 54.3113 30.0731 53.91C29.6904 53.4993 29.1677 53.294 28.5051 53.294C27.8331 53.294 27.2964 53.504 26.8951 53.924C26.5031 54.344 26.3071 54.9553 26.3071 55.758V60H25.0331V52.328H26.3071V53.42C26.5591 53.028 26.8997 52.7247 27.3291 52.51C27.7677 52.2953 28.2484 52.188 28.7711 52.188Z" fill="white"/>
<circle r="23" transform="matrix(-1 0 0 1 23 23)" fill="white"/>
<path d="M31.08 21.2733L19.47 13.8558C19.3134 13.7631 19.1411 13.7219 18.9688 13.736C18.7966 13.7501 18.6298 13.819 18.4837 13.9364C18.3376 14.0539 18.2168 14.2162 18.1323 14.4086C18.0478 14.6009 18.0023 14.8172 18 15.0378V29.8664C17.9985 30.0928 18.0428 30.3158 18.1285 30.514C18.2142 30.7121 18.3385 30.8786 18.4893 30.9975C18.6401 31.1163 18.8124 31.1834 18.9894 31.1923C19.1665 31.2012 19.3423 31.1516 19.5 31.0483L31.08 23.6308C31.2515 23.5208 31.3957 23.352 31.4965 23.1433C31.5973 22.9345 31.6507 22.6941 31.6507 22.4489C31.6507 22.2036 31.5973 21.9632 31.4965 21.7545C31.3957 21.5458 31.2515 21.3769 31.08 21.2669V21.2733Z" fill="#BD1A1A"/>
<path d="M23 41.375C27.8734 41.375 32.5471 39.4391 35.9931 35.9931C39.4391 32.5471 41.375 27.8734 41.375 23C41.375 18.1266 39.4391 13.4529 35.9931 10.0069C32.5471 6.56093 27.8734 4.625 23 4.625C18.1266 4.625 13.4529 6.56093 10.0069 10.0069C6.56093 13.4529 4.625 18.1266 4.625 23C4.625 27.8734 6.56093 32.5471 10.0069 35.9931C13.4529 39.4391 18.1266 41.375 23 41.375ZM23 44C17.4305 44 12.089 41.7875 8.15076 37.8492C4.21249 33.911 2 28.5695 2 23C2 17.4305 4.21249 12.089 8.15076 8.15076C12.089 4.21249 17.4305 2 23 2C28.5695 2 33.911 4.21249 37.8492 8.15076C41.7875 12.089 44 17.4305 44 23C44 28.5695 41.7875 33.911 37.8492 37.8492C33.911 41.7875 28.5695 44 23 44Z" fill="#BD1A1A"/>
</svg>
