<svg width="68" height="68" viewBox="0 0 68 68" fill="none" xmlns="http://www.w3.org/2000/svg">
<rect width="68" height="68" rx="16" fill="#D9D9D9"/>
<path d="M18.602 51.136C18.602 50.352 18.7607 49.666 19.078 49.078C19.3953 48.4807 19.8293 48.0187 20.38 47.692C20.94 47.3653 21.5653 47.202 22.256 47.202C22.8533 47.202 23.4087 47.342 23.922 47.622C24.4353 47.8927 24.8273 48.252 25.098 48.7V44.64H26.386V55H25.098V53.558C24.846 54.0153 24.4727 54.3933 23.978 54.692C23.4833 54.9813 22.9047 55.126 22.242 55.126C21.5607 55.126 20.94 54.958 20.38 54.622C19.8293 54.286 19.3953 53.8147 19.078 53.208C18.7607 52.6013 18.602 51.9107 18.602 51.136ZM25.098 51.15C25.098 50.5713 24.9813 50.0673 24.748 49.638C24.5147 49.2087 24.1973 48.882 23.796 48.658C23.404 48.4247 22.97 48.308 22.494 48.308C22.018 48.308 21.584 48.42 21.192 48.644C20.8 48.868 20.4873 49.1947 20.254 49.624C20.0207 50.0533 19.904 50.5573 19.904 51.136C19.904 51.724 20.0207 52.2373 20.254 52.676C20.4873 53.1053 20.8 53.4367 21.192 53.67C21.584 53.894 22.018 54.006 22.494 54.006C22.97 54.006 23.404 53.894 23.796 53.67C24.1973 53.4367 24.5147 53.1053 24.748 52.676C24.9813 52.2373 25.098 51.7287 25.098 51.15ZM28.0629 51.136C28.0629 50.352 28.2216 49.666 28.5389 49.078C28.8563 48.4807 29.2903 48.0187 29.8409 47.692C30.4009 47.3653 31.0216 47.202 31.7029 47.202C32.3749 47.202 32.9583 47.3467 33.4529 47.636C33.9476 47.9253 34.3163 48.2893 34.5589 48.728V47.328H35.8469V55H34.5589V53.572C34.3069 54.02 33.9289 54.3933 33.4249 54.692C32.9303 54.9813 32.3516 55.126 31.6889 55.126C31.0076 55.126 30.3916 54.958 29.8409 54.622C29.2903 54.286 28.8563 53.8147 28.5389 53.208C28.2216 52.6013 28.0629 51.9107 28.0629 51.136ZM34.5589 51.15C34.5589 50.5713 34.4423 50.0673 34.2089 49.638C33.9756 49.2087 33.6583 48.882 33.2569 48.658C32.8649 48.4247 32.4309 48.308 31.9549 48.308C31.4789 48.308 31.0449 48.42 30.6529 48.644C30.2609 48.868 29.9483 49.1947 29.7149 49.624C29.4816 50.0533 29.3649 50.5573 29.3649 51.136C29.3649 51.724 29.4816 52.2373 29.7149 52.676C29.9483 53.1053 30.2609 53.4367 30.6529 53.67C31.0449 53.894 31.4789 54.006 31.9549 54.006C32.4309 54.006 32.8649 53.894 33.2569 53.67C33.6583 53.4367 33.9756 53.1053 34.2089 52.676C34.4423 52.2373 34.5589 51.7287 34.5589 51.15ZM39.2739 48.574C39.4979 48.1353 39.8152 47.7947 40.2259 47.552C40.6459 47.3093 41.1545 47.188 41.7519 47.188V48.504H41.4159C39.9879 48.504 39.2739 49.2787 39.2739 50.828V55H37.9999V47.328H39.2739V48.574ZM47.5065 55L44.4965 51.612V55H43.2225V44.64H44.4965V50.73L47.4505 47.328H49.2285L45.6165 51.15L49.2425 55H47.5065Z" fill="#555555"/>
<path d="M32 9C27 9 21 14 21 22C21 30 27 36 35 36C43 36 48 30 48 25C37 32 25 20 32 9Z" stroke="#555555" stroke-width="2" stroke-linecap="round" stroke-linejoin="round"/>
</svg>
