<svg width="52" height="66" viewBox="0 0 52 66" fill="none" xmlns="http://www.w3.org/2000/svg">
<circle r="23" transform="matrix(-1 0 0 1 25 23)" fill="white"/>
<path d="M2.352 53.574C2.576 53.1353 2.89333 52.7947 3.304 52.552C3.724 52.3093 4.23267 52.188 4.83 52.188V53.504H4.494C3.066 53.504 2.352 54.2787 2.352 55.828V60H1.078V52.328H2.352V53.574ZM13.3007 55.87C13.3007 56.1127 13.2867 56.3693 13.2587 56.64H7.12666C7.17332 57.396 7.42999 57.9887 7.89666 58.418C8.37266 58.838 8.94666 59.048 9.61866 59.048C10.1693 59.048 10.6267 58.922 10.9907 58.67C11.364 58.4087 11.6253 58.0633 11.7747 57.634H13.1467C12.9413 58.3713 12.5307 58.9733 11.9147 59.44C11.2987 59.8973 10.5333 60.126 9.61866 60.126C8.89066 60.126 8.23732 59.9627 7.65866 59.636C7.08932 59.3093 6.64132 58.8473 6.31466 58.25C5.98799 57.6433 5.82466 56.9433 5.82466 56.15C5.82466 55.3567 5.98332 54.6613 6.30066 54.064C6.61799 53.4667 7.06132 53.0093 7.63066 52.692C8.20932 52.3653 8.87199 52.202 9.61866 52.202C10.3467 52.202 10.9907 52.3607 11.5507 52.678C12.1107 52.9953 12.54 53.434 12.8387 53.994C13.1467 54.5447 13.3007 55.17 13.3007 55.87ZM11.9847 55.604C11.9847 55.1187 11.8773 54.7033 11.6627 54.358C11.448 54.0033 11.154 53.7373 10.7807 53.56C10.4167 53.3733 10.0107 53.28 9.56266 53.28C8.91866 53.28 8.36799 53.4853 7.91066 53.896C7.46266 54.3067 7.20599 54.876 7.14066 55.604H11.9847ZM17.8383 58.824L20.2183 52.328H21.5763L18.5663 60H17.0823L14.0723 52.328H15.4443L17.8383 58.824ZM29.83 55.87C29.83 56.1127 29.816 56.3693 29.788 56.64H23.656C23.7026 57.396 23.9593 57.9887 24.426 58.418C24.902 58.838 25.476 59.048 26.148 59.048C26.6986 59.048 27.156 58.922 27.52 58.67C27.8933 58.4087 28.1546 58.0633 28.304 57.634H29.676C29.4706 58.3713 29.06 58.9733 28.444 59.44C27.828 59.8973 27.0626 60.126 26.148 60.126C25.42 60.126 24.7666 59.9627 24.188 59.636C23.6186 59.3093 23.1706 58.8473 22.844 58.25C22.5173 57.6433 22.354 56.9433 22.354 56.15C22.354 55.3567 22.5126 54.6613 22.83 54.064C23.1473 53.4667 23.5906 53.0093 24.16 52.692C24.7386 52.3653 25.4013 52.202 26.148 52.202C26.876 52.202 27.52 52.3607 28.08 52.678C28.64 52.9953 29.0693 53.434 29.368 53.994C29.676 54.5447 29.83 55.17 29.83 55.87ZM28.514 55.604C28.514 55.1187 28.4066 54.7033 28.192 54.358C27.9773 54.0033 27.6833 53.7373 27.31 53.56C26.946 53.3733 26.54 53.28 26.092 53.28C25.448 53.28 24.8973 53.4853 24.44 53.896C23.992 54.3067 23.7353 54.876 23.67 55.604H28.514ZM32.7856 53.574C33.0096 53.1353 33.3269 52.7947 33.7376 52.552C34.1576 52.3093 34.6663 52.188 35.2636 52.188V53.504H34.9276C33.4996 53.504 32.7856 54.2787 32.7856 55.828V60H31.5116V52.328H32.7856V53.574ZM39.4503 60.126C38.8623 60.126 38.3349 60.028 37.8683 59.832C37.4016 59.6267 37.0329 59.3467 36.7623 58.992C36.4916 58.628 36.3423 58.2127 36.3143 57.746H37.6303C37.6676 58.1287 37.8449 58.4413 38.1623 58.684C38.4889 58.9267 38.9136 59.048 39.4363 59.048C39.9216 59.048 40.3043 58.9407 40.5843 58.726C40.8643 58.5113 41.0043 58.2407 41.0043 57.914C41.0043 57.578 40.8549 57.3307 40.5563 57.172C40.2576 57.004 39.7956 56.8407 39.1703 56.682C38.6009 56.5327 38.1343 56.3833 37.7703 56.234C37.4156 56.0753 37.1076 55.8467 36.8463 55.548C36.5943 55.24 36.4683 54.8387 36.4683 54.344C36.4683 53.952 36.5849 53.5927 36.8183 53.266C37.0516 52.9393 37.3829 52.6827 37.8123 52.496C38.2416 52.3 38.7316 52.202 39.2823 52.202C40.1316 52.202 40.8176 52.4167 41.3403 52.846C41.8629 53.2753 42.1429 53.8633 42.1803 54.61H40.9063C40.8783 54.2087 40.7149 53.8867 40.4163 53.644C40.1269 53.4013 39.7349 53.28 39.2403 53.28C38.7829 53.28 38.4189 53.378 38.1483 53.574C37.8776 53.77 37.7423 54.0267 37.7423 54.344C37.7423 54.596 37.8216 54.806 37.9803 54.974C38.1483 55.1327 38.3536 55.2633 38.5963 55.366C38.8483 55.4593 39.1936 55.5667 39.6323 55.688C40.1829 55.8373 40.6309 55.9867 40.9763 56.136C41.3216 56.276 41.6156 56.4907 41.8583 56.78C42.1103 57.0693 42.2409 57.4473 42.2503 57.914C42.2503 58.334 42.1336 58.712 41.9003 59.048C41.6669 59.384 41.3356 59.65 40.9063 59.846C40.4863 60.0327 40.0009 60.126 39.4503 60.126ZM51.0487 55.87C51.0487 56.1127 51.0347 56.3693 51.0067 56.64H44.8747C44.9214 57.396 45.178 57.9887 45.6447 58.418C46.1207 58.838 46.6947 59.048 47.3667 59.048C47.9174 59.048 48.3747 58.922 48.7387 58.67C49.112 58.4087 49.3734 58.0633 49.5227 57.634H50.8947C50.6894 58.3713 50.2787 58.9733 49.6627 59.44C49.0467 59.8973 48.2814 60.126 47.3667 60.126C46.6387 60.126 45.9854 59.9627 45.4067 59.636C44.8374 59.3093 44.3894 58.8473 44.0627 58.25C43.736 57.6433 43.5727 56.9433 43.5727 56.15C43.5727 55.3567 43.7314 54.6613 44.0487 54.064C44.366 53.4667 44.8094 53.0093 45.3787 52.692C45.9574 52.3653 46.62 52.202 47.3667 52.202C48.0947 52.202 48.7387 52.3607 49.2987 52.678C49.8587 52.9953 50.288 53.434 50.5867 53.994C50.8947 54.5447 51.0487 55.17 51.0487 55.87ZM49.7327 55.604C49.7327 55.1187 49.6254 54.7033 49.4107 54.358C49.196 54.0033 48.902 53.7373 48.5287 53.56C48.1647 53.3733 47.7587 53.28 47.3107 53.28C46.6667 53.28 46.116 53.4853 45.6587 53.896C45.2107 54.3067 44.954 54.876 44.8887 55.604H49.7327Z" fill="white"/>
<g clip-path="url(#clip0_7_184)">
<path d="M25 41.375C29.8734 41.375 34.5471 39.4391 37.9931 35.9931C41.4391 32.5471 43.375 27.8734 43.375 23C43.375 18.1266 41.4391 13.4529 37.9931 10.0069C34.5471 6.56093 29.8734 4.625 25 4.625C20.1266 4.625 15.4529 6.56093 12.0069 10.0069C8.56093 13.4529 6.625 18.1266 6.625 23C6.625 27.8734 8.56093 32.5471 12.0069 35.9931C15.4529 39.4391 20.1266 41.375 25 41.375ZM25 44C19.4305 44 14.089 41.7875 10.1508 37.8492C6.21249 33.911 4 28.5695 4 23C4 17.4305 6.21249 12.089 10.1508 8.15076C14.089 4.21249 19.4305 2 25 2C30.5695 2 35.911 4.21249 39.8492 8.15076C43.7875 12.089 46 17.4305 46 23C46 28.5695 43.7875 33.911 39.8492 37.8492C35.911 41.7875 30.5695 44 25 44Z" fill="#BD1A1A"/>
<path d="M34.7886 15.2694C34.5739 15.1589 34.3329 15.1097 34.0921 15.1273C33.8513 15.1449 33.62 15.2286 33.4236 15.3691L26.3125 20.4485V16.4375C26.3124 16.1966 26.2459 15.9604 26.1204 15.7547C25.9949 15.5491 25.8153 15.3819 25.6011 15.2716C25.3869 15.1612 25.1465 15.112 24.9062 15.1292C24.6659 15.1464 24.435 15.2294 24.2387 15.3691L17.125 20.4485V16.4375C17.125 16.0894 16.9867 15.7556 16.7406 15.5094C16.4944 15.2633 16.1606 15.125 15.8125 15.125C15.4644 15.125 15.1306 15.2633 14.8844 15.5094C14.6383 15.7556 14.5 16.0894 14.5 16.4375V29.5625C14.5 29.9106 14.6383 30.2445 14.8844 30.4906C15.1306 30.7367 15.4644 30.875 15.8125 30.875C16.1606 30.875 16.4944 30.7367 16.7406 30.4906C16.9867 30.2445 17.125 29.9106 17.125 29.5625V25.5515L24.2387 30.6309C24.435 30.7706 24.6659 30.8536 24.9062 30.8709C25.1465 30.8881 25.3869 30.8388 25.6011 30.7285C25.8153 30.6181 25.9949 30.451 26.1204 30.2453C26.2459 30.0397 26.3124 29.8034 26.3125 29.5625V25.5515L33.4262 30.6309C33.6225 30.7706 33.8534 30.8536 34.0937 30.8709C34.334 30.8881 34.5744 30.8388 34.7886 30.7285C35.0028 30.6181 35.1824 30.451 35.3079 30.2453C35.4334 30.0397 35.4999 29.8034 35.5 29.5625V16.4375C35.5003 16.1962 35.434 15.9596 35.3085 15.7535C35.183 15.5474 35.0031 15.3799 34.7886 15.2694Z" fill="#BD1A1A"/>
</g>
<defs>
<clipPath id="clip0_7_184">
<rect width="42" height="42" fill="white" transform="matrix(-1 0 0 1 46 2)"/>
</clipPath>
</defs>
</svg>
