<svg width="48" height="48" viewBox="0 0 48 48" fill="none" xmlns="http://www.w3.org/2000/svg">
<path d="M0 0H32C40.8366 0 48 7.16344 48 16V32C48 40.8366 40.8366 48 32 48H0V0Z" fill="#999999"/>
<path d="M10.016 32.636C10.232 32.26 10.552 31.948 10.976 31.7C11.408 31.444 11.908 31.316 12.476 31.316C13.06 31.316 13.588 31.456 14.06 31.736C14.54 32.016 14.916 32.412 15.188 32.924C15.46 33.428 15.596 34.016 15.596 34.688C15.596 35.352 15.46 35.944 15.188 36.464C14.916 36.984 14.54 37.388 14.06 37.676C13.588 37.964 13.06 38.108 12.476 38.108C11.916 38.108 11.42 37.984 10.988 37.736C10.564 37.48 10.24 37.164 10.016 36.788V41.12H8.924V31.424H10.016V32.636ZM14.48 34.688C14.48 34.192 14.38 33.76 14.18 33.392C13.98 33.024 13.708 32.744 13.364 32.552C13.028 32.36 12.656 32.264 12.248 32.264C11.848 32.264 11.476 32.364 11.132 32.564C10.796 32.756 10.524 33.04 10.316 33.416C10.116 33.784 10.016 34.212 10.016 34.7C10.016 35.196 10.116 35.632 10.316 36.008C10.524 36.376 10.796 36.66 11.132 36.86C11.476 37.052 11.848 37.148 12.248 37.148C12.656 37.148 13.028 37.052 13.364 36.86C13.708 36.66 13.98 36.376 14.18 36.008C14.38 35.632 14.48 35.192 14.48 34.688ZM18.1254 32.492C18.3174 32.116 18.5894 31.824 18.9414 31.616C19.3014 31.408 19.7374 31.304 20.2494 31.304V32.432H19.9614C18.7374 32.432 18.1254 33.096 18.1254 34.424V38H17.0334V31.424H18.1254V32.492ZM27.5099 34.46C27.5099 34.668 27.4979 34.888 27.4739 35.12H22.2179C22.2579 35.768 22.4779 36.276 22.8779 36.644C23.2859 37.004 23.7779 37.184 24.3539 37.184C24.8259 37.184 25.2179 37.076 25.5299 36.86C25.8499 36.636 26.0739 36.34 26.2019 35.972H27.3779C27.2019 36.604 26.8499 37.12 26.3219 37.52C25.7939 37.912 25.1379 38.108 24.3539 38.108C23.7299 38.108 23.1699 37.968 22.6739 37.688C22.1859 37.408 21.8019 37.012 21.5219 36.5C21.2419 35.98 21.1019 35.38 21.1019 34.7C21.1019 34.02 21.2379 33.424 21.5099 32.912C21.7819 32.4 22.1619 32.008 22.6499 31.736C23.1459 31.456 23.7139 31.316 24.3539 31.316C24.9779 31.316 25.5299 31.452 26.0099 31.724C26.4899 31.996 26.8579 32.372 27.1139 32.852C27.3779 33.324 27.5099 33.86 27.5099 34.46ZM26.3819 34.232C26.3819 33.816 26.2899 33.46 26.1059 33.164C25.9219 32.86 25.6699 32.632 25.3499 32.48C25.0379 32.32 24.6899 32.24 24.3059 32.24C23.7539 32.24 23.2819 32.416 22.8899 32.768C22.5059 33.12 22.2859 33.608 22.2299 34.232H26.3819ZM31.3993 36.992L33.4393 31.424H34.6033L32.0233 38H30.7513L28.1713 31.424H29.3473L31.3993 36.992Z" fill="white"/>
<path d="M21 10L22.0725 11.0447L17.8875 15.25H27V16.75H17.8875L22.0725 20.9297L21 22L15 16L21 10Z" fill="#666666"/>
<path d="M21 26.5C18.9233 26.5 16.8932 25.8842 15.1665 24.7304C13.4398 23.5767 12.094 21.9368 11.2993 20.0182C10.5045 18.0996 10.2966 15.9884 10.7018 13.9516C11.1069 11.9148 12.1069 10.0438 13.5754 8.57538C15.0438 7.10693 16.9147 6.1069 18.9515 5.70176C20.9883 5.29661 23.0995 5.50455 25.0182 6.29927C26.9368 7.09399 28.5767 8.4398 29.7304 10.1665C30.8842 11.8932 31.5 13.9233 31.5 16C31.4968 18.7838 30.3896 21.4527 28.4211 23.4211C26.4527 25.3896 23.7838 26.4968 21 26.5V26.5ZM21 7C19.22 7 17.4799 7.52785 15.9999 8.51678C14.5198 9.50571 13.3663 10.9113 12.6851 12.5559C12.0039 14.2004 11.8257 16.01 12.1729 17.7558C12.5202 19.5016 13.3774 21.1053 14.636 22.364C15.8947 23.6226 17.4984 24.4798 19.2442 24.8271C20.99 25.1743 22.7996 24.9961 24.4441 24.3149C26.0887 23.6337 27.4943 22.4802 28.4832 21.0001C29.4722 19.5201 30 17.78 30 16C29.9972 13.6139 29.0481 11.3263 27.3609 9.63911C25.6737 7.95189 23.3861 7.00278 21 7V7Z" fill="#666666"/>
</svg>
