<svg width="55" height="66" viewBox="0 0 55 66" fill="none" xmlns="http://www.w3.org/2000/svg">
<circle r="23" transform="matrix(-1 0 0 1 26 23)" fill="#F7FADC"/>
<path d="M4.2 53.378H2.59V60H1.316V53.378H0.322V52.328H1.316V51.782C1.316 50.9233 1.53533 50.298 1.974 49.906C2.422 49.5047 3.136 49.304 4.116 49.304V50.368C3.556 50.368 3.15933 50.48 2.926 50.704C2.702 50.9187 2.59 51.278 2.59 51.782V52.328H4.2V53.378ZM9.03142 60.126C8.31276 60.126 7.65942 59.9627 7.07142 59.636C6.49276 59.3093 6.03542 58.8473 5.69942 58.25C5.37276 57.6433 5.20942 56.9433 5.20942 56.15C5.20942 55.366 5.37742 54.6753 5.71342 54.078C6.05876 53.4713 6.52542 53.0093 7.11342 52.692C7.70142 52.3653 8.35942 52.202 9.08742 52.202C9.81542 52.202 10.4734 52.3653 11.0614 52.692C11.6494 53.0093 12.1114 53.4667 12.4474 54.064C12.7928 54.6613 12.9654 55.3567 12.9654 56.15C12.9654 56.9433 12.7881 57.6433 12.4334 58.25C12.0881 58.8473 11.6168 59.3093 11.0194 59.636C10.4221 59.9627 9.75942 60.126 9.03142 60.126ZM9.03142 59.006C9.48876 59.006 9.91809 58.8987 10.3194 58.684C10.7208 58.4693 11.0428 58.1473 11.2854 57.718C11.5374 57.2887 11.6634 56.766 11.6634 56.15C11.6634 55.534 11.5421 55.0113 11.2994 54.582C11.0568 54.1527 10.7394 53.8353 10.3474 53.63C9.95542 53.4153 9.53076 53.308 9.07342 53.308C8.60676 53.308 8.17742 53.4153 7.78542 53.63C7.40276 53.8353 7.09476 54.1527 6.86142 54.582C6.62809 55.0113 6.51142 55.534 6.51142 56.15C6.51142 56.7753 6.62342 57.3027 6.84742 57.732C7.08076 58.1613 7.38876 58.4833 7.77142 58.698C8.15409 58.9033 8.57409 59.006 9.03142 59.006ZM15.9145 53.574C16.1385 53.1353 16.4558 52.7947 16.8665 52.552C17.2865 52.3093 17.7952 52.188 18.3925 52.188V53.504H18.0565C16.6285 53.504 15.9145 54.2787 15.9145 55.828V60H14.6405V52.328H15.9145V53.574ZM30.0832 52.328L27.6892 60H26.3732L24.5252 53.91L22.6772 60H21.3612L18.9532 52.328H20.2552L22.0192 58.768L23.9232 52.328H25.2252L27.0872 58.782L28.8232 52.328H30.0832ZM30.8715 56.136C30.8715 55.352 31.0302 54.666 31.3475 54.078C31.6649 53.4807 32.0989 53.0187 32.6495 52.692C33.2095 52.3653 33.8302 52.202 34.5115 52.202C35.1835 52.202 35.7669 52.3467 36.2615 52.636C36.7562 52.9253 37.1249 53.2893 37.3675 53.728V52.328H38.6555V60H37.3675V58.572C37.1155 59.02 36.7375 59.3933 36.2335 59.692C35.7389 59.9813 35.1602 60.126 34.4975 60.126C33.8162 60.126 33.2002 59.958 32.6495 59.622C32.0989 59.286 31.6649 58.8147 31.3475 58.208C31.0302 57.6013 30.8715 56.9107 30.8715 56.136ZM37.3675 56.15C37.3675 55.5713 37.2509 55.0673 37.0175 54.638C36.7842 54.2087 36.4669 53.882 36.0655 53.658C35.6735 53.4247 35.2395 53.308 34.7635 53.308C34.2875 53.308 33.8535 53.42 33.4615 53.644C33.0695 53.868 32.7569 54.1947 32.5235 54.624C32.2902 55.0533 32.1735 55.5573 32.1735 56.136C32.1735 56.724 32.2902 57.2373 32.5235 57.676C32.7569 58.1053 33.0695 58.4367 33.4615 58.67C33.8535 58.894 34.2875 59.006 34.7635 59.006C35.2395 59.006 35.6735 58.894 36.0655 58.67C36.4669 58.4367 36.7842 58.1053 37.0175 57.676C37.2509 57.2373 37.3675 56.7287 37.3675 56.15ZM42.0825 53.574C42.3065 53.1353 42.6238 52.7947 43.0345 52.552C43.4545 52.3093 43.9631 52.188 44.5605 52.188V53.504H44.2245C42.7965 53.504 42.0825 54.2787 42.0825 55.828V60H40.8085V52.328H42.0825V53.574ZM45.5551 56.136C45.5551 55.352 45.7138 54.666 46.0311 54.078C46.3485 53.4807 46.7825 53.0187 47.3331 52.692C47.8931 52.3653 48.5185 52.202 49.2091 52.202C49.8065 52.202 50.3618 52.342 50.8751 52.622C51.3885 52.8927 51.7805 53.252 52.0511 53.7V49.64H53.3391V60H52.0511V58.558C51.7991 59.0153 51.4258 59.3933 50.9311 59.692C50.4365 59.9813 49.8578 60.126 49.1951 60.126C48.5138 60.126 47.8931 59.958 47.3331 59.622C46.7825 59.286 46.3485 58.8147 46.0311 58.208C45.7138 57.6013 45.5551 56.9107 45.5551 56.136ZM52.0511 56.15C52.0511 55.5713 51.9345 55.0673 51.7011 54.638C51.4678 54.2087 51.1505 53.882 50.7491 53.658C50.3571 53.4247 49.9231 53.308 49.4471 53.308C48.9711 53.308 48.5371 53.42 48.1451 53.644C47.7531 53.868 47.4405 54.1947 47.2071 54.624C46.9738 55.0533 46.8571 55.5573 46.8571 56.136C46.8571 56.724 46.9738 57.2373 47.2071 57.676C47.4405 58.1053 47.7531 58.4367 48.1451 58.67C48.5371 58.894 48.9711 59.006 49.4471 59.006C49.9231 59.006 50.3571 58.894 50.7491 58.67C51.1505 58.4367 51.4678 58.1053 51.7011 57.676C51.9345 57.2373 52.0511 56.7287 52.0511 56.15Z" fill="#F7FADC"/>
<path d="M16.2114 15.2694C16.4261 15.1589 16.6671 15.1097 16.9079 15.1273C17.1487 15.1449 17.38 15.2286 17.5764 15.3691L24.6875 20.4485V16.4375C24.6876 16.1966 24.7541 15.9604 24.8796 15.7547C25.0051 15.5491 25.1847 15.3819 25.3989 15.2716C25.6131 15.1612 25.8535 15.112 26.0938 15.1292C26.3341 15.1464 26.565 15.2294 26.7613 15.3691L33.875 20.4485V16.4375C33.875 16.0894 34.0133 15.7556 34.2594 15.5094C34.5056 15.2633 34.8394 15.125 35.1875 15.125C35.5356 15.125 35.8694 15.2633 36.1156 15.5094C36.3617 15.7556 36.5 16.0894 36.5 16.4375V29.5625C36.5 29.9106 36.3617 30.2445 36.1156 30.4906C35.8694 30.7367 35.5356 30.875 35.1875 30.875C34.8394 30.875 34.5056 30.7367 34.2594 30.4906C34.0133 30.2445 33.875 29.9106 33.875 29.5625V25.5515L26.7613 30.6309C26.565 30.7706 26.3341 30.8536 26.0938 30.8709C25.8535 30.8881 25.6131 30.8388 25.3989 30.7285C25.1847 30.6181 25.0051 30.451 24.8796 30.2453C24.7541 30.0397 24.6876 29.8034 24.6875 29.5625V25.5515L17.5737 30.6309C17.3775 30.7706 17.1466 30.8536 16.9063 30.8709C16.666 30.8881 16.4256 30.8388 16.2114 30.7285C15.9972 30.6181 15.8176 30.451 15.6921 30.2453C15.5666 30.0397 15.5001 29.8034 15.5 29.5625V16.4375C15.4997 16.1962 15.566 15.9596 15.6915 15.7535C15.817 15.5474 15.9969 15.3799 16.2114 15.2694V15.2694Z" fill="#0D1171"/>
<path d="M26 41.375C30.8734 41.375 35.5471 39.4391 38.9931 35.9931C42.4391 32.5471 44.375 27.8734 44.375 23C44.375 18.1266 42.4391 13.4529 38.9931 10.0069C35.5471 6.56093 30.8734 4.625 26 4.625C21.1266 4.625 16.4529 6.56093 13.0069 10.0069C9.56093 13.4529 7.625 18.1266 7.625 23C7.625 27.8734 9.56093 32.5471 13.0069 35.9931C16.4529 39.4391 21.1266 41.375 26 41.375ZM26 44C20.4305 44 15.089 41.7875 11.1508 37.8492C7.21249 33.911 5 28.5695 5 23C5 17.4305 7.21249 12.089 11.1508 8.15076C15.089 4.21249 20.4305 2 26 2C31.5695 2 36.911 4.21249 40.8492 8.15076C44.7875 12.089 47 17.4305 47 23C47 28.5695 44.7875 33.911 40.8492 37.8492C36.911 41.7875 31.5695 44 26 44V44Z" fill="#0D1171"/>
</svg>
