<svg width="50" height="68" viewBox="0 0 50 68" fill="none" xmlns="http://www.w3.org/2000/svg">
<circle r="23" transform="matrix(-1 0 0 1 25 25)" fill="white"/>
<path d="M19.424 62.126C18.7053 62.126 18.052 61.9627 17.464 61.636C16.8853 61.3093 16.428 60.8473 16.092 60.25C15.7653 59.6433 15.602 58.9433 15.602 58.15C15.602 57.366 15.77 56.6753 16.106 56.078C16.4513 55.4713 16.918 55.0093 17.506 54.692C18.094 54.3653 18.752 54.202 19.48 54.202C20.208 54.202 20.866 54.3653 21.454 54.692C22.042 55.0093 22.504 55.4667 22.84 56.064C23.1853 56.6613 23.358 57.3567 23.358 58.15C23.358 58.9433 23.1807 59.6433 22.826 60.25C22.4807 60.8473 22.0093 61.3093 21.412 61.636C20.8147 61.9627 20.152 62.126 19.424 62.126ZM19.424 61.006C19.8813 61.006 20.3107 60.8987 20.712 60.684C21.1133 60.4693 21.4353 60.1473 21.678 59.718C21.93 59.2887 22.056 58.766 22.056 58.15C22.056 57.534 21.9347 57.0113 21.692 56.582C21.4493 56.1527 21.132 55.8353 20.74 55.63C20.348 55.4153 19.9233 55.308 19.466 55.308C18.9993 55.308 18.57 55.4153 18.178 55.63C17.7953 55.8353 17.4873 56.1527 17.254 56.582C17.0207 57.0113 16.904 57.534 16.904 58.15C16.904 58.7753 17.016 59.3027 17.24 59.732C17.4733 60.1613 17.7813 60.4833 18.164 60.698C18.5467 60.9033 18.9667 61.006 19.424 61.006ZM28.1551 55.378H26.5451V62H25.2711V55.378H24.2771V54.328H25.2711V53.782C25.2711 52.9233 25.4904 52.298 25.9291 51.906C26.3771 51.5047 27.0911 51.304 28.0711 51.304V52.368C27.5111 52.368 27.1144 52.48 26.8811 52.704C26.6571 52.9187 26.5451 53.278 26.5451 53.782V54.328H28.1551V55.378ZM32.7625 55.378H31.1525V62H29.8785V55.378H28.8845V54.328H29.8785V53.782C29.8785 52.9233 30.0978 52.298 30.5365 51.906C30.9845 51.5047 31.6985 51.304 32.6785 51.304V52.368C32.1185 52.368 31.7218 52.48 31.4885 52.704C31.2645 52.9187 31.1525 53.278 31.1525 53.782V54.328H32.7625V55.378Z" fill="white"/>
<path d="M25 36.4131C30.5937 36.4131 35.1449 31.8618 35.1449 26.2681C35.1449 22.0199 32.5174 18.3792 28.8043 16.8701V19.6891C29.9595 20.3561 30.919 21.3149 31.5867 22.4696C32.2545 23.6243 32.6069 24.9343 32.6087 26.2681C32.6087 30.4643 29.1962 33.8768 25 33.8768C20.8038 33.8768 17.3913 30.4643 17.3913 26.2681C17.393 24.9342 17.7454 23.6243 18.4131 22.4695C19.0808 21.3148 20.0404 20.356 21.1957 19.6891V16.8701C17.4826 18.3792 14.8551 22.0199 14.8551 26.2681C14.8551 31.8618 19.4063 36.4131 25 36.4131Z" fill="#BD1A1A"/>
<path d="M23.7319 12.3188H26.2681V25H23.7319V12.3188Z" fill="#BD1A1A"/>
<path d="M25 43.375C29.8734 43.375 34.5471 41.4391 37.9931 37.9931C41.4391 34.5471 43.375 29.8734 43.375 25C43.375 20.1266 41.4391 15.4529 37.9931 12.0069C34.5471 8.56093 29.8734 6.625 25 6.625C20.1266 6.625 15.4529 8.56093 12.0069 12.0069C8.56093 15.4529 6.625 20.1266 6.625 25C6.625 29.8734 8.56093 34.5471 12.0069 37.9931C15.4529 41.4391 20.1266 43.375 25 43.375ZM25 46C19.4305 46 14.089 43.7875 10.1508 39.8492C6.21249 35.911 4 30.5695 4 25C4 19.4305 6.21249 14.089 10.1508 10.1508C14.089 6.21249 19.4305 4 25 4C30.5695 4 35.911 6.21249 39.8492 10.1508C43.7875 14.089 46 19.4305 46 25C46 30.5695 43.7875 35.911 39.8492 39.8492C35.911 43.7875 30.5695 46 25 46Z" fill="#BD1A1A"/>
<path d="M25 43.375C29.8734 43.375 34.5471 41.4391 37.9931 37.9931C41.4391 34.5471 43.375 29.8734 43.375 25C43.375 20.1266 41.4391 15.4529 37.9931 12.0069C34.5471 8.56093 29.8734 6.625 25 6.625C20.1266 6.625 15.4529 8.56093 12.0069 12.0069C8.56093 15.4529 6.625 20.1266 6.625 25C6.625 29.8734 8.56093 34.5471 12.0069 37.9931C15.4529 41.4391 20.1266 43.375 25 43.375ZM25 46C19.4305 46 14.089 43.7875 10.1508 39.8492C6.21249 35.911 4 30.5695 4 25C4 19.4305 6.21249 14.089 10.1508 10.1508C14.089 6.21249 19.4305 4 25 4C30.5695 4 35.911 6.21249 39.8492 10.1508C43.7875 14.089 46 19.4305 46 25C46 30.5695 43.7875 35.911 39.8492 39.8492C35.911 43.7875 30.5695 46 25 46Z" fill="#BD1A1A"/>
</svg>
