<svg width="48" height="48" viewBox="0 0 48 48" fill="none" xmlns="http://www.w3.org/2000/svg">
<path d="M48 0H16C7.16344 0 0 7.16344 0 16V32C0 40.8366 7.16344 48 16 48H48V0Z" fill="#999999"/>
<path d="M17.128 30.304C17.928 30.304 18.576 30.548 19.072 31.036C19.568 31.516 19.816 32.212 19.816 33.124V37H18.736V33.28C18.736 32.624 18.572 32.124 18.244 31.78C17.916 31.428 17.468 31.252 16.9 31.252C16.324 31.252 15.864 31.432 15.52 31.792C15.184 32.152 15.016 32.676 15.016 33.364V37H13.924V30.424H15.016V31.36C15.232 31.024 15.524 30.764 15.892 30.58C16.268 30.396 16.68 30.304 17.128 30.304ZM27.5998 33.46C27.5998 33.668 27.5878 33.888 27.5638 34.12H22.3078C22.3478 34.768 22.5678 35.276 22.9678 35.644C23.3758 36.004 23.8678 36.184 24.4438 36.184C24.9158 36.184 25.3078 36.076 25.6198 35.86C25.9398 35.636 26.1638 35.34 26.2918 34.972H27.4678C27.2918 35.604 26.9398 36.12 26.4118 36.52C25.8838 36.912 25.2278 37.108 24.4438 37.108C23.8198 37.108 23.2598 36.968 22.7638 36.688C22.2758 36.408 21.8918 36.012 21.6118 35.5C21.3318 34.98 21.1918 34.38 21.1918 33.7C21.1918 33.02 21.3278 32.424 21.5998 31.912C21.8718 31.4 22.2518 31.008 22.7398 30.736C23.2358 30.456 23.8038 30.316 24.4438 30.316C25.0678 30.316 25.6198 30.452 26.0998 30.724C26.5798 30.996 26.9478 31.372 27.2038 31.852C27.4678 32.324 27.5998 32.86 27.5998 33.46ZM26.4718 33.232C26.4718 32.816 26.3798 32.46 26.1958 32.164C26.0118 31.86 25.7598 31.632 25.4398 31.48C25.1278 31.32 24.7798 31.24 24.3958 31.24C23.8438 31.24 23.3718 31.416 22.9798 31.768C22.5958 32.12 22.3758 32.608 22.3198 33.232H26.4718ZM32.4732 37L30.9132 34.552L29.4132 37H28.2732L30.3972 33.736L28.2732 30.424H29.5092L31.0692 32.86L32.5572 30.424H33.6972L31.5852 33.676L33.7092 37H32.4732ZM36.1154 31.324V35.2C36.1154 35.52 36.1834 35.748 36.3194 35.884C36.4554 36.012 36.6914 36.076 37.0274 36.076H37.8314V37H36.8474C36.2394 37 35.7834 36.86 35.4794 36.58C35.1754 36.3 35.0234 35.84 35.0234 35.2V31.324H34.1714V30.424H35.0234V28.768H36.1154V30.424H37.8314V31.324H36.1154Z" fill="white"/>
<path d="M24 10L22.9275 11.0447L27.1125 15.25H18V16.75H27.1125L22.9275 20.9297L24 22L30 16L24 10Z" fill="#666666"/>
<path d="M24 26.5C26.0767 26.5 28.1068 25.8842 29.8335 24.7304C31.5602 23.5767 32.906 21.9368 33.7007 20.0182C34.4955 18.0996 34.7034 15.9884 34.2982 13.9516C33.8931 11.9148 32.8931 10.0438 31.4246 8.57538C29.9562 7.10693 28.0852 6.1069 26.0484 5.70176C24.0116 5.29661 21.9004 5.50455 19.9818 6.29927C18.0632 7.09399 16.4233 8.4398 15.2696 10.1665C14.1158 11.8932 13.5 13.9233 13.5 16C13.5032 18.7838 14.6104 21.4527 16.5789 23.4211C18.5473 25.3896 21.2162 26.4968 24 26.5V26.5ZM24 7C25.78 7 27.5201 7.52785 29.0001 8.51678C30.4802 9.50571 31.6337 10.9113 32.3149 12.5559C32.9961 14.2004 33.1743 16.01 32.8271 17.7558C32.4798 19.5016 31.6226 21.1053 30.364 22.364C29.1053 23.6226 27.5016 24.4798 25.7558 24.8271C24.01 25.1743 22.2004 24.9961 20.5558 24.3149C18.9113 23.6337 17.5057 22.4802 16.5168 21.0001C15.5278 19.5201 15 17.78 15 16C15.0028 13.6139 15.9519 11.3263 17.6391 9.63911C19.3263 7.95189 21.6139 7.00278 24 7V7Z" fill="#666666"/>
</svg>
