<svg width="173" height="68" viewBox="0 0 173 68" fill="none" xmlns="http://www.w3.org/2000/svg">
<rect width="173" height="68" rx="16" fill="#D9D9D9"/>
<path d="M38.602 21.114C38.602 20.162 38.8167 19.308 39.246 18.552C39.6753 17.7867 40.2587 17.1893 40.996 16.76C41.7427 16.3307 42.5687 16.116 43.474 16.116C44.538 16.116 45.4667 16.3727 46.26 16.886C47.0533 17.3993 47.632 18.1273 47.996 19.07H46.47C46.1993 18.482 45.8073 18.0293 45.294 17.712C44.79 17.3947 44.1833 17.236 43.474 17.236C42.7927 17.236 42.1813 17.3947 41.64 17.712C41.0987 18.0293 40.674 18.482 40.366 19.07C40.058 19.6487 39.904 20.33 39.904 21.114C39.904 21.8887 40.058 22.57 40.366 23.158C40.674 23.7367 41.0987 24.1847 41.64 24.502C42.1813 24.8193 42.7927 24.978 43.474 24.978C44.1833 24.978 44.79 24.824 45.294 24.516C45.8073 24.1987 46.1993 23.746 46.47 23.158H47.996C47.632 24.0913 47.0533 24.8147 46.26 25.328C45.4667 25.832 44.538 26.084 43.474 26.084C42.5687 26.084 41.7427 25.874 40.996 25.454C40.2587 25.0247 39.6753 24.432 39.246 23.676C38.8167 22.92 38.602 22.066 38.602 21.114ZM53.2385 26.126C52.5198 26.126 51.8665 25.9627 51.2785 25.636C50.6998 25.3093 50.2425 24.8473 49.9065 24.25C49.5798 23.6433 49.4165 22.9433 49.4165 22.15C49.4165 21.366 49.5845 20.6753 49.9205 20.078C50.2658 19.4713 50.7325 19.0093 51.3205 18.692C51.9085 18.3653 52.5665 18.202 53.2945 18.202C54.0225 18.202 54.6805 18.3653 55.2685 18.692C55.8565 19.0093 56.3185 19.4667 56.6545 20.064C56.9998 20.6613 57.1725 21.3567 57.1725 22.15C57.1725 22.9433 56.9951 23.6433 56.6405 24.25C56.2951 24.8473 55.8238 25.3093 55.2265 25.636C54.6291 25.9627 53.9665 26.126 53.2385 26.126ZM53.2385 25.006C53.6958 25.006 54.1251 24.8987 54.5265 24.684C54.9278 24.4693 55.2498 24.1473 55.4925 23.718C55.7445 23.2887 55.8705 22.766 55.8705 22.15C55.8705 21.534 55.7491 21.0113 55.5065 20.582C55.2638 20.1527 54.9465 19.8353 54.5545 19.63C54.1625 19.4153 53.7378 19.308 53.2805 19.308C52.8138 19.308 52.3845 19.4153 51.9925 19.63C51.6098 19.8353 51.3018 20.1527 51.0685 20.582C50.8351 21.0113 50.7185 21.534 50.7185 22.15C50.7185 22.7753 50.8305 23.3027 51.0545 23.732C51.2878 24.1613 51.5958 24.4833 51.9785 24.698C52.3611 24.9033 52.7811 25.006 53.2385 25.006ZM60.1215 15.64V26H58.8475V15.64H60.1215ZM65.6388 26.126C64.9202 26.126 64.2668 25.9627 63.6788 25.636C63.1002 25.3093 62.6428 24.8473 62.3068 24.25C61.9802 23.6433 61.8168 22.9433 61.8168 22.15C61.8168 21.366 61.9848 20.6753 62.3208 20.078C62.6662 19.4713 63.1328 19.0093 63.7208 18.692C64.3088 18.3653 64.9668 18.202 65.6948 18.202C66.4228 18.202 67.0808 18.3653 67.6688 18.692C68.2568 19.0093 68.7188 19.4667 69.0548 20.064C69.4002 20.6613 69.5728 21.3567 69.5728 22.15C69.5728 22.9433 69.3955 23.6433 69.0408 24.25C68.6955 24.8473 68.2242 25.3093 67.6268 25.636C67.0295 25.9627 66.3668 26.126 65.6388 26.126ZM65.6388 25.006C66.0962 25.006 66.5255 24.8987 66.9268 24.684C67.3282 24.4693 67.6502 24.1473 67.8928 23.718C68.1448 23.2887 68.2708 22.766 68.2708 22.15C68.2708 21.534 68.1495 21.0113 67.9068 20.582C67.6642 20.1527 67.3468 19.8353 66.9548 19.63C66.5628 19.4153 66.1382 19.308 65.6808 19.308C65.2142 19.308 64.7848 19.4153 64.3928 19.63C64.0102 19.8353 63.7022 20.1527 63.4688 20.582C63.2355 21.0113 63.1188 21.534 63.1188 22.15C63.1188 22.7753 63.2308 23.3027 63.4548 23.732C63.6882 24.1613 63.9962 24.4833 64.3788 24.698C64.7615 24.9033 65.1815 25.006 65.6388 25.006ZM72.5219 19.574C72.7459 19.1353 73.0633 18.7947 73.4739 18.552C73.8939 18.3093 74.4026 18.188 74.9999 18.188V19.504H74.6639C73.2359 19.504 72.5219 20.2787 72.5219 21.828V26H71.2479V18.328H72.5219V19.574ZM76.8766 26.084C76.6339 26.084 76.4286 26 76.2606 25.832C76.0926 25.664 76.0086 25.4587 76.0086 25.216C76.0086 24.9733 76.0926 24.768 76.2606 24.6C76.4286 24.432 76.6339 24.348 76.8766 24.348C77.1099 24.348 77.3059 24.432 77.4646 24.6C77.6326 24.768 77.7166 24.9733 77.7166 25.216C77.7166 25.4587 77.6326 25.664 77.4646 25.832C77.3059 26 77.1099 26.084 76.8766 26.084ZM76.8766 20.092C76.6339 20.092 76.4286 20.008 76.2606 19.84C76.0926 19.672 76.0086 19.4667 76.0086 19.224C76.0086 18.9813 76.0926 18.776 76.2606 18.608C76.4286 18.44 76.6339 18.356 76.8766 18.356C77.1099 18.356 77.3059 18.44 77.4646 18.608C77.6326 18.776 77.7166 18.9813 77.7166 19.224C77.7166 19.4667 77.6326 19.672 77.4646 19.84C77.3059 20.008 77.1099 20.092 76.8766 20.092Z" fill="#666666"/>
<path d="M24 24.95L26.775 27.05C26.975 27.1833 27.175 27.1873 27.375 27.062C27.575 26.9373 27.6333 26.7583 27.55 26.525L26.5 23.05L29.225 21.1C29.425 20.95 29.4833 20.7623 29.4 20.537C29.3167 20.3123 29.1583 20.2 28.925 20.2H25.6L24.475 16.55C24.3917 16.3167 24.2333 16.2 24 16.2C23.7667 16.2 23.6083 16.3167 23.525 16.55L22.4 20.2H19.075C18.8417 20.2 18.6833 20.3123 18.6 20.537C18.5167 20.7623 18.575 20.95 18.775 21.1L21.5 23.05L20.45 26.525C20.3667 26.7583 20.425 26.9373 20.625 27.062C20.825 27.1873 21.025 27.1833 21.225 27.05L24 24.95ZM24 32C22.6167 32 21.3167 31.7373 20.1 31.212C18.8833 30.6873 17.825 29.975 16.925 29.075C16.025 28.175 15.3127 27.1167 14.788 25.9C14.2627 24.6833 14 23.3833 14 22C14 20.6167 14.2627 19.3167 14.788 18.1C15.3127 16.8833 16.025 15.825 16.925 14.925C17.825 14.025 18.8833 13.3123 20.1 12.787C21.3167 12.2623 22.6167 12 24 12C25.3833 12 26.6833 12.2623 27.9 12.787C29.1167 13.3123 30.175 14.025 31.075 14.925C31.975 15.825 32.6873 16.8833 33.212 18.1C33.7373 19.3167 34 20.6167 34 22C34 23.3833 33.7373 24.6833 33.212 25.9C32.6873 27.1167 31.975 28.175 31.075 29.075C30.175 29.975 29.1167 30.6873 27.9 31.212C26.6833 31.7373 25.3833 32 24 32ZM24 30C26.2167 30 28.1043 29.221 29.663 27.663C31.221 26.1043 32 24.2167 32 22C32 19.7833 31.221 17.8957 29.663 16.337C28.1043 14.779 26.2167 14 24 14C21.7833 14 19.896 14.779 18.338 16.337C16.7793 17.8957 16 19.7833 16 22C16 24.2167 16.7793 26.1043 18.338 27.663C19.896 29.221 21.7833 30 24 30Z" fill="#666666"/>
</svg>
