<svg width="173" height="68" viewBox="0 0 173 68" fill="none" xmlns="http://www.w3.org/2000/svg">
<rect width="173" height="68" rx="16" fill="#D9D9D9"/>
<path d="M45.976 18.312V28H44.702V20.776L41.482 28H40.586L37.352 20.762V28H36.078V18.312H37.45L41.034 26.32L44.618 18.312H45.976ZM51.4826 28.126C50.7639 28.126 50.1106 27.9627 49.5226 27.636C48.9439 27.3093 48.4866 26.8473 48.1506 26.25C47.8239 25.6433 47.6606 24.9433 47.6606 24.15C47.6606 23.366 47.8286 22.6753 48.1646 22.078C48.5099 21.4713 48.9766 21.0093 49.5646 20.692C50.1526 20.3653 50.8106 20.202 51.5386 20.202C52.2666 20.202 52.9246 20.3653 53.5126 20.692C54.1006 21.0093 54.5626 21.4667 54.8986 22.064C55.2439 22.6613 55.4166 23.3567 55.4166 24.15C55.4166 24.9433 55.2393 25.6433 54.8846 26.25C54.5393 26.8473 54.0679 27.3093 53.4706 27.636C52.8733 27.9627 52.2106 28.126 51.4826 28.126ZM51.4826 27.006C51.9399 27.006 52.3693 26.8987 52.7706 26.684C53.1719 26.4693 53.4939 26.1473 53.7366 25.718C53.9886 25.2887 54.1146 24.766 54.1146 24.15C54.1146 23.534 53.9933 23.0113 53.7506 22.582C53.5079 22.1527 53.1906 21.8353 52.7986 21.63C52.4066 21.4153 51.9819 21.308 51.5246 21.308C51.0579 21.308 50.6286 21.4153 50.2366 21.63C49.8539 21.8353 49.5459 22.1527 49.3126 22.582C49.0793 23.0113 48.9626 23.534 48.9626 24.15C48.9626 24.7753 49.0746 25.3027 49.2986 25.732C49.5319 26.1613 49.8399 26.4833 50.2226 26.698C50.6053 26.9033 51.0253 27.006 51.4826 27.006ZM56.6157 24.136C56.6157 23.352 56.7743 22.666 57.0917 22.078C57.409 21.4807 57.843 21.0187 58.3937 20.692C58.9537 20.3653 59.579 20.202 60.2697 20.202C60.867 20.202 61.4223 20.342 61.9357 20.622C62.449 20.8927 62.841 21.252 63.1117 21.7V17.64H64.3997V28H63.1117V26.558C62.8597 27.0153 62.4863 27.3933 61.9917 27.692C61.497 27.9813 60.9183 28.126 60.2557 28.126C59.5743 28.126 58.9537 27.958 58.3937 27.622C57.843 27.286 57.409 26.8147 57.0917 26.208C56.7743 25.6013 56.6157 24.9107 56.6157 24.136ZM63.1117 24.15C63.1117 23.5713 62.995 23.0673 62.7617 22.638C62.5283 22.2087 62.211 21.882 61.8097 21.658C61.4177 21.4247 60.9837 21.308 60.5077 21.308C60.0317 21.308 59.5977 21.42 59.2057 21.644C58.8137 21.868 58.501 22.1947 58.2677 22.624C58.0343 23.0533 57.9177 23.5573 57.9177 24.136C57.9177 24.724 58.0343 25.2373 58.2677 25.676C58.501 26.1053 58.8137 26.4367 59.2057 26.67C59.5977 26.894 60.0317 27.006 60.5077 27.006C60.9837 27.006 61.4177 26.894 61.8097 26.67C62.211 26.4367 62.5283 26.1053 62.7617 25.676C62.995 25.2373 63.1117 24.7287 63.1117 24.15ZM73.5526 23.87C73.5526 24.1127 73.5386 24.3693 73.5106 24.64H67.3786C67.4253 25.396 67.6819 25.9887 68.1486 26.418C68.6246 26.838 69.1986 27.048 69.8706 27.048C70.4213 27.048 70.8786 26.922 71.2426 26.67C71.6159 26.4087 71.8773 26.0633 72.0266 25.634H73.3986C73.1933 26.3713 72.7826 26.9733 72.1666 27.44C71.5506 27.8973 70.7853 28.126 69.8706 28.126C69.1426 28.126 68.4893 27.9627 67.9106 27.636C67.3413 27.3093 66.8933 26.8473 66.5666 26.25C66.2399 25.6433 66.0766 24.9433 66.0766 24.15C66.0766 23.3567 66.2353 22.6613 66.5526 22.064C66.8699 21.4667 67.3133 21.0093 67.8826 20.692C68.4613 20.3653 69.1239 20.202 69.8706 20.202C70.5986 20.202 71.2426 20.3607 71.8026 20.678C72.3626 20.9953 72.7919 21.434 73.0906 21.994C73.3986 22.5447 73.5526 23.17 73.5526 23.87ZM72.2366 23.604C72.2366 23.1187 72.1293 22.7033 71.9146 22.358C71.6999 22.0033 71.4059 21.7373 71.0326 21.56C70.6686 21.3733 70.2626 21.28 69.8146 21.28C69.1706 21.28 68.6199 21.4853 68.1626 21.896C67.7146 22.3067 67.4579 22.876 67.3926 23.604H72.2366ZM76.5083 17.64V28H75.2343V17.64H76.5083ZM79.0856 28.084C78.8429 28.084 78.6376 28 78.4696 27.832C78.3016 27.664 78.2176 27.4587 78.2176 27.216C78.2176 26.9733 78.3016 26.768 78.4696 26.6C78.6376 26.432 78.8429 26.348 79.0856 26.348C79.3189 26.348 79.5149 26.432 79.6736 26.6C79.8416 26.768 79.9256 26.9733 79.9256 27.216C79.9256 27.4587 79.8416 27.664 79.6736 27.832C79.5149 28 79.3189 28.084 79.0856 28.084ZM79.0856 22.092C78.8429 22.092 78.6376 22.008 78.4696 21.84C78.3016 21.672 78.2176 21.4667 78.2176 21.224C78.2176 20.9813 78.3016 20.776 78.4696 20.608C78.6376 20.44 78.8429 20.356 79.0856 20.356C79.3189 20.356 79.5149 20.44 79.6736 20.608C79.8416 20.776 79.9256 20.9813 79.9256 21.224C79.9256 21.4667 79.8416 21.672 79.6736 21.84C79.5149 22.008 79.3189 22.092 79.0856 22.092Z" fill="#666666"/>
<path d="M23 26.95L25.775 29.05C25.975 29.1833 26.175 29.1873 26.375 29.062C26.575 28.9373 26.6333 28.7583 26.55 28.525L25.5 25.05L28.225 23.1C28.425 22.95 28.4833 22.7623 28.4 22.537C28.3167 22.3123 28.1583 22.2 27.925 22.2H24.6L23.475 18.55C23.3917 18.3167 23.2333 18.2 23 18.2C22.7667 18.2 22.6083 18.3167 22.525 18.55L21.4 22.2H18.075C17.8417 22.2 17.6833 22.3123 17.6 22.537C17.5167 22.7623 17.575 22.95 17.775 23.1L20.5 25.05L19.45 28.525C19.3667 28.7583 19.425 28.9373 19.625 29.062C19.825 29.1873 20.025 29.1833 20.225 29.05L23 26.95ZM23 34C21.6167 34 20.3167 33.7373 19.1 33.212C17.8833 32.6873 16.825 31.975 15.925 31.075C15.025 30.175 14.3127 29.1167 13.788 27.9C13.2627 26.6833 13 25.3833 13 24C13 22.6167 13.2627 21.3167 13.788 20.1C14.3127 18.8833 15.025 17.825 15.925 16.925C16.825 16.025 17.8833 15.3123 19.1 14.787C20.3167 14.2623 21.6167 14 23 14C24.3833 14 25.6833 14.2623 26.9 14.787C28.1167 15.3123 29.175 16.025 30.075 16.925C30.975 17.825 31.6873 18.8833 32.212 20.1C32.7373 21.3167 33 22.6167 33 24C33 25.3833 32.7373 26.6833 32.212 27.9C31.6873 29.1167 30.975 30.175 30.075 31.075C29.175 31.975 28.1167 32.6873 26.9 33.212C25.6833 33.7373 24.3833 34 23 34ZM23 32C25.2167 32 27.1043 31.221 28.663 29.663C30.221 28.1043 31 26.2167 31 24C31 21.7833 30.221 19.8957 28.663 18.337C27.1043 16.779 25.2167 16 23 16C20.7833 16 18.896 16.779 17.338 18.337C15.7793 19.8957 15 21.7833 15 24C15 26.2167 15.7793 28.1043 17.338 29.663C18.896 31.221 20.7833 32 23 32Z" fill="#666666"/>
</svg>
