<svg width="173" height="68" viewBox="0 0 173 68" fill="none" xmlns="http://www.w3.org/2000/svg">
<rect width="173" height="68" rx="16" fill="#D9D9D9"/>
<path d="M43.7848 23L41.4608 19.01H39.9208V23H38.6468V13.242H41.7968C42.5341 13.242 43.1548 13.368 43.6588 13.62C44.1721 13.872 44.5548 14.2127 44.8068 14.642C45.0588 15.0713 45.1848 15.5613 45.1848 16.112C45.1848 16.784 44.9888 17.3767 44.5968 17.89C44.2141 18.4033 43.6354 18.744 42.8608 18.912L45.3108 23H43.7848ZM39.9208 17.988H41.7968C42.4874 17.988 43.0054 17.82 43.3508 17.484C43.6961 17.1387 43.8688 16.6813 43.8688 16.112C43.8688 15.5333 43.6961 15.0853 43.3508 14.768C43.0148 14.4507 42.4968 14.292 41.7968 14.292H39.9208V17.988ZM54.1643 18.87C54.1643 19.1127 54.1503 19.3693 54.1223 19.64H47.9903C48.037 20.396 48.2937 20.9887 48.7603 21.418C49.2363 21.838 49.8103 22.048 50.4823 22.048C51.033 22.048 51.4903 21.922 51.8543 21.67C52.2277 21.4087 52.489 21.0633 52.6383 20.634H54.0103C53.805 21.3713 53.3943 21.9733 52.7783 22.44C52.1623 22.8973 51.397 23.126 50.4823 23.126C49.7543 23.126 49.101 22.9627 48.5223 22.636C47.953 22.3093 47.505 21.8473 47.1783 21.25C46.8517 20.6433 46.6883 19.9433 46.6883 19.15C46.6883 18.3567 46.847 17.6613 47.1643 17.064C47.4817 16.4667 47.925 16.0093 48.4943 15.692C49.073 15.3653 49.7357 15.202 50.4823 15.202C51.2103 15.202 51.8543 15.3607 52.4143 15.678C52.9743 15.9953 53.4037 16.434 53.7023 16.994C54.0103 17.5447 54.1643 18.17 54.1643 18.87ZM52.8483 18.604C52.8483 18.1187 52.741 17.7033 52.5263 17.358C52.3117 17.0033 52.0177 16.7373 51.6443 16.56C51.2803 16.3733 50.8743 16.28 50.4263 16.28C49.7823 16.28 49.2317 16.4853 48.7743 16.896C48.3263 17.3067 48.0697 17.876 48.0043 18.604H52.8483ZM58.968 16.378H57.358V23H56.084V16.378H55.09V15.328H56.084V14.782C56.084 13.9233 56.3033 13.298 56.742 12.906C57.19 12.5047 57.904 12.304 58.884 12.304V13.368C58.324 13.368 57.9273 13.48 57.694 13.704C57.47 13.9187 57.358 14.278 57.358 14.782V15.328H58.968V16.378ZM67.4534 18.87C67.4534 19.1127 67.4394 19.3693 67.4114 19.64H61.2794C61.3261 20.396 61.5827 20.9887 62.0494 21.418C62.5254 21.838 63.0994 22.048 63.7714 22.048C64.3221 22.048 64.7794 21.922 65.1434 21.67C65.5167 21.4087 65.7781 21.0633 65.9274 20.634H67.2994C67.0941 21.3713 66.6834 21.9733 66.0674 22.44C65.4514 22.8973 64.6861 23.126 63.7714 23.126C63.0434 23.126 62.3901 22.9627 61.8114 22.636C61.2421 22.3093 60.7941 21.8473 60.4674 21.25C60.1407 20.6433 59.9774 19.9433 59.9774 19.15C59.9774 18.3567 60.1361 17.6613 60.4534 17.064C60.7707 16.4667 61.2141 16.0093 61.7834 15.692C62.3621 15.3653 63.0247 15.202 63.7714 15.202C64.4994 15.202 65.1434 15.3607 65.7034 15.678C66.2634 15.9953 66.6927 16.434 66.9914 16.994C67.2994 17.5447 67.4534 18.17 67.4534 18.87ZM66.1374 18.604C66.1374 18.1187 66.0301 17.7033 65.8154 17.358C65.6007 17.0033 65.3067 16.7373 64.9334 16.56C64.5694 16.3733 64.1634 16.28 63.7154 16.28C63.0714 16.28 62.5207 16.4853 62.0634 16.896C61.6154 17.3067 61.3587 17.876 61.2934 18.604H66.1374ZM70.409 16.574C70.633 16.1353 70.9504 15.7947 71.361 15.552C71.781 15.3093 72.2897 15.188 72.887 15.188V16.504H72.551C71.123 16.504 70.409 17.2787 70.409 18.828V23H69.135V15.328H70.409V16.574ZM81.3577 18.87C81.3577 19.1127 81.3437 19.3693 81.3157 19.64H75.1837C75.2304 20.396 75.487 20.9887 75.9537 21.418C76.4297 21.838 77.0037 22.048 77.6757 22.048C78.2264 22.048 78.6837 21.922 79.0477 21.67C79.421 21.4087 79.6824 21.0633 79.8317 20.634H81.2037C80.9984 21.3713 80.5877 21.9733 79.9717 22.44C79.3557 22.8973 78.5904 23.126 77.6757 23.126C76.9477 23.126 76.2944 22.9627 75.7157 22.636C75.1464 22.3093 74.6984 21.8473 74.3717 21.25C74.045 20.6433 73.8817 19.9433 73.8817 19.15C73.8817 18.3567 74.0404 17.6613 74.3577 17.064C74.675 16.4667 75.1184 16.0093 75.6877 15.692C76.2664 15.3653 76.929 15.202 77.6757 15.202C78.4037 15.202 79.0477 15.3607 79.6077 15.678C80.1677 15.9953 80.597 16.434 80.8957 16.994C81.2037 17.5447 81.3577 18.17 81.3577 18.87ZM80.0417 18.604C80.0417 18.1187 79.9344 17.7033 79.7197 17.358C79.505 17.0033 79.211 16.7373 78.8377 16.56C78.4737 16.3733 78.0677 16.28 77.6197 16.28C76.9757 16.28 76.425 16.4853 75.9677 16.896C75.5197 17.3067 75.263 17.876 75.1977 18.604H80.0417ZM86.7773 15.188C87.7107 15.188 88.4667 15.4727 89.0453 16.042C89.624 16.602 89.9133 17.414 89.9133 18.478V23H88.6533V18.66C88.6533 17.8947 88.462 17.3113 88.0793 16.91C87.6967 16.4993 87.174 16.294 86.5113 16.294C85.8393 16.294 85.3027 16.504 84.9013 16.924C84.5093 17.344 84.3133 17.9553 84.3133 18.758V23H83.0393V15.328H84.3133V16.42C84.5653 16.028 84.906 15.7247 85.3353 15.51C85.774 15.2953 86.2547 15.188 86.7773 15.188ZM91.5184 19.15C91.5184 18.3567 91.6771 17.666 91.9944 17.078C92.3117 16.4807 92.7504 16.0187 93.3104 15.692C93.8797 15.3653 94.5284 15.202 95.2564 15.202C96.1991 15.202 96.9737 15.4307 97.5804 15.888C98.1964 16.3453 98.6024 16.98 98.7984 17.792H97.4264C97.2957 17.3253 97.0391 16.9567 96.6564 16.686C96.2831 16.4153 95.8164 16.28 95.2564 16.28C94.5284 16.28 93.9404 16.532 93.4924 17.036C93.0444 17.5307 92.8204 18.2353 92.8204 19.15C92.8204 20.074 93.0444 20.788 93.4924 21.292C93.9404 21.796 94.5284 22.048 95.2564 22.048C95.8164 22.048 96.2831 21.9173 96.6564 21.656C97.0297 21.3947 97.2864 21.0213 97.4264 20.536H98.7984C98.5931 21.32 98.1824 21.95 97.5664 22.426C96.9504 22.8927 96.1804 23.126 95.2564 23.126C94.5284 23.126 93.8797 22.9627 93.3104 22.636C92.7504 22.3093 92.3117 21.8473 91.9944 21.25C91.6771 20.6527 91.5184 19.9527 91.5184 19.15ZM107.498 18.87C107.498 19.1127 107.484 19.3693 107.456 19.64H101.324C101.371 20.396 101.628 20.9887 102.094 21.418C102.57 21.838 103.144 22.048 103.816 22.048C104.367 22.048 104.824 21.922 105.188 21.67C105.562 21.4087 105.823 21.0633 105.972 20.634H107.344C107.139 21.3713 106.728 21.9733 106.112 22.44C105.496 22.8973 104.731 23.126 103.816 23.126C103.088 23.126 102.435 22.9627 101.856 22.636C101.287 22.3093 100.839 21.8473 100.512 21.25C100.186 20.6433 100.022 19.9433 100.022 19.15C100.022 18.3567 100.181 17.6613 100.498 17.064C100.816 16.4667 101.259 16.0093 101.828 15.692C102.407 15.3653 103.07 15.202 103.816 15.202C104.544 15.202 105.188 15.3607 105.748 15.678C106.308 15.9953 106.738 16.434 107.036 16.994C107.344 17.5447 107.498 18.17 107.498 18.87ZM106.182 18.604C106.182 18.1187 106.075 17.7033 105.86 17.358C105.646 17.0033 105.352 16.7373 104.978 16.56C104.614 16.3733 104.208 16.28 103.76 16.28C103.116 16.28 102.566 16.4853 102.108 16.896C101.66 17.3067 101.404 17.876 101.338 18.604H106.182ZM109.586 23.084C109.343 23.084 109.138 23 108.97 22.832C108.802 22.664 108.718 22.4587 108.718 22.216C108.718 21.9733 108.802 21.768 108.97 21.6C109.138 21.432 109.343 21.348 109.586 21.348C109.819 21.348 110.015 21.432 110.174 21.6C110.342 21.768 110.426 21.9733 110.426 22.216C110.426 22.4587 110.342 22.664 110.174 22.832C110.015 23 109.819 23.084 109.586 23.084ZM109.586 17.092C109.343 17.092 109.138 17.008 108.97 16.84C108.802 16.672 108.718 16.4667 108.718 16.224C108.718 15.9813 108.802 15.776 108.97 15.608C109.138 15.44 109.343 15.356 109.586 15.356C109.819 15.356 110.015 15.44 110.174 15.608C110.342 15.776 110.426 15.9813 110.426 16.224C110.426 16.4667 110.342 16.672 110.174 16.84C110.015 17.008 109.819 17.092 109.586 17.092Z" fill="#666666"/>
<path d="M24 22.95L26.775 25.05C26.975 25.1833 27.175 25.1873 27.375 25.062C27.575 24.9373 27.6333 24.7583 27.55 24.525L26.5 21.05L29.225 19.1C29.425 18.95 29.4833 18.7623 29.4 18.537C29.3167 18.3123 29.1583 18.2 28.925 18.2H25.6L24.475 14.55C24.3917 14.3167 24.2333 14.2 24 14.2C23.7667 14.2 23.6083 14.3167 23.525 14.55L22.4 18.2H19.075C18.8417 18.2 18.6833 18.3123 18.6 18.537C18.5167 18.7623 18.575 18.95 18.775 19.1L21.5 21.05L20.45 24.525C20.3667 24.7583 20.425 24.9373 20.625 25.062C20.825 25.1873 21.025 25.1833 21.225 25.05L24 22.95ZM24 30C22.6167 30 21.3167 29.7373 20.1 29.212C18.8833 28.6873 17.825 27.975 16.925 27.075C16.025 26.175 15.3127 25.1167 14.788 23.9C14.2627 22.6833 14 21.3833 14 20C14 18.6167 14.2627 17.3167 14.788 16.1C15.3127 14.8833 16.025 13.825 16.925 12.925C17.825 12.025 18.8833 11.3123 20.1 10.787C21.3167 10.2623 22.6167 10 24 10C25.3833 10 26.6833 10.2623 27.9 10.787C29.1167 11.3123 30.175 12.025 31.075 12.925C31.975 13.825 32.6873 14.8833 33.212 16.1C33.7373 17.3167 34 18.6167 34 20C34 21.3833 33.7373 22.6833 33.212 23.9C32.6873 25.1167 31.975 26.175 31.075 27.075C30.175 27.975 29.1167 28.6873 27.9 29.212C26.6833 29.7373 25.3833 30 24 30ZM24 28C26.2167 28 28.1043 27.221 29.663 25.663C31.221 24.1043 32 22.2167 32 20C32 17.7833 31.221 15.8957 29.663 14.337C28.1043 12.779 26.2167 12 24 12C21.7833 12 19.896 12.779 18.338 14.337C16.7793 15.8957 16 17.7833 16 20C16 22.2167 16.7793 24.1043 18.338 25.663C19.896 27.221 21.7833 28 24 28Z" fill="#666666"/>
</svg>
